<svg xmlns="http://www.w3.org/2000/svg" width="48" height="48" viewBox="0 0 48 48" fill="none">
  <g clip-path="url(#clip0_772_7415)">
    <path d="M24.0021 48C22.5584 48 21.1979 47.4383 20.1786 46.4148L1.58516 27.8256C0.561671 26.8021 0 25.4458 0 24.0021C0 22.5584 0.561671 21.1979 1.58516 20.1786L20.1744 1.58516C21.1979 0.561671 22.5542 0 23.9979 0C25.4416 0 26.8021 0.561671 27.8214 1.58516L46.4148 20.1786C48.5242 22.2879 48.5242 25.7162 46.4148 27.8256L27.8214 46.419C26.798 47.4425 25.4416 48.0042 23.9979 48.0042L24.0021 48Z" fill="#CD7F32"/>
    <path d="M24.0021 45.9197C23.1118 45.9197 22.2755 45.5744 21.6473 44.9462L3.05389 26.3528C2.42565 25.7245 2.08032 24.8883 2.08032 23.9979C2.08032 23.1076 2.42565 22.2713 3.05389 21.6431L21.6473 3.05382C22.9454 1.75574 25.0547 1.75574 26.3528 3.05382L44.9462 21.6472C46.2443 22.9453 46.2443 25.0547 44.9462 26.3528L26.3528 44.9462C25.7246 45.5744 24.8883 45.9197 23.998 45.9197H24.0021ZM22.8247 4.23125L4.23131 22.8246C3.91511 23.1408 3.74453 23.5569 3.74453 24.0021C3.74453 24.4473 3.91927 24.8633 4.23131 25.1795L22.8247 43.7729C23.4529 44.4011 24.5513 44.4011 25.1796 43.7729L43.773 25.1795C44.422 24.5305 44.422 23.4737 43.773 22.8246L25.1754 4.23125C24.5264 3.58221 23.4696 3.58221 22.8205 4.23125H22.8247Z" fill="#F9F9F2"/>
    <path d="M15.6811 14.8489C15.6811 13.4718 16.8003 12.3526 18.1774 12.3526C19.5545 12.3526 20.6737 13.4718 20.6737 14.8489V21.5058C20.6737 22.8829 19.5545 24.0021 18.1774 24.0021C16.8003 24.0021 15.6811 22.8829 15.6811 21.5058V14.8489Z" fill="#F9F9F2"/>
    <path d="M27.3306 14.8489C27.3306 13.4718 28.4497 12.3526 29.8269 12.3526C31.204 12.3526 32.3232 13.4718 32.3232 14.8489V21.5058C32.3232 22.8829 31.204 24.0021 29.8269 24.0021C28.4497 24.0021 27.3306 22.8829 27.3306 21.5058V14.8489Z" fill="#F9F9F2"/>
    <path d="M32.1401 25.6663C33.5256 25.6663 34.2578 26.4027 33.925 27.759C33.8043 28.2583 33.6421 29.1653 33.4507 29.6438C32.9348 30.9044 32.1817 32.0527 31.2331 33.0179C30.2845 33.9832 29.157 34.7487 27.913 35.2729C26.6732 35.7972 25.3418 36.0634 23.998 36.0634C22.6541 36.0634 21.3228 35.793 20.0829 35.2729C18.8431 34.7487 17.7156 33.9832 16.7628 33.0179C15.8142 32.0527 15.0612 30.9044 14.5453 29.6438C14.3497 29.1653 14.1916 28.2583 14.071 27.759C13.7381 26.3985 14.4745 25.6663 15.8558 25.6663H32.1401Z" fill="#F9F9F2"/>
  </g>
  <defs>
    <clipPath id="clip0_772_7415">
      <rect width="48" height="48" fill="white"/>
    </clipPath>
  </defs>
</svg>