<svg width="25" height="24" viewBox="0 0 25 24" fill="none" xmlns="http://www.w3.org/2000/svg">
<g id="socials">
<path id="Vector" d="M19.6061 6.54548C19.6061 6.54548 17.5216 4.91366 15.0606 4.72729L14.8388 5.17184C17.0634 5.71639 18.0843 6.49548 19.1516 7.45457C17.3125 6.51548 15.497 5.63639 12.3334 5.63639C9.16974 5.63639 7.35519 6.51548 5.51519 7.45457C6.58247 6.49548 7.79701 5.62911 9.82792 5.17184L9.6061 4.72729C7.02428 4.97093 5.06065 6.54548 5.06065 6.54548C5.06065 6.54548 2.73337 9.92093 2.33337 16.5455C4.67883 19.2518 8.24247 19.2727 8.24247 19.2727L8.98792 18.28C7.72247 17.84 6.29519 17.0546 5.06065 15.6364C6.53246 16.75 8.75428 17.9091 12.3334 17.9091C15.9134 17.9091 18.1343 16.75 19.6061 15.6364C18.3716 17.0546 16.9452 17.84 15.6788 18.28L16.4243 19.2727C16.4243 19.2727 19.9879 19.2518 22.3334 16.5455C21.9334 9.92093 19.6061 6.54548 19.6061 6.54548ZM9.37883 14.7273C8.49974 14.7273 7.78792 13.9137 7.78792 12.9091C7.78792 11.9046 8.49974 11.0909 9.37883 11.0909C10.2579 11.0909 10.9697 11.9046 10.9697 12.9091C10.9697 13.9137 10.2579 14.7273 9.37883 14.7273ZM15.2879 14.7273C14.4088 14.7273 13.697 13.9137 13.697 12.9091C13.697 11.9046 14.4088 11.0909 15.2879 11.0909C16.167 11.0909 16.8788 11.9046 16.8788 12.9091C16.8788 13.9137 16.167 14.7273 15.2879 14.7273Z" fill="#125AFA"/>
</g>
</svg>
