<svg width="32" height="136" viewBox="0 0 32 136" fill="none" xmlns="http://www.w3.org/2000/svg">
<line x1="16.5" y1="2.18557e-08" x2="16.5" y2="44" stroke="#F9F9F2"/>
<path fill-rule="evenodd" clip-rule="evenodd" d="M15.2929 57.9596C15.6834 57.569 16.3166 57.569 16.7071 57.9596L26.0405 67.2929C26.431 67.6834 26.431 68.3166 26.0405 68.7071L16.7071 78.0404C16.3166 78.431 15.6834 78.431 15.2929 78.0404C14.9024 77.6499 14.9024 77.0168 15.2929 76.6262L22.9191 69H6.66669C6.1144 69 5.66669 68.5523 5.66669 68C5.66669 67.4477 6.1144 67 6.66669 67H22.9191L15.2929 59.3738C14.9024 58.9833 14.9024 58.3501 15.2929 57.9596Z" fill="#FBFDFD"/>
<line x1="16.5" y1="92" x2="16.5" y2="136" stroke="#F9F9F2"/>
</svg>
