<svg xmlns="http://www.w3.org/2000/svg" width="25" height="24" viewBox="0 0 25 24" fill="none">
  <path d="M11.6666 16.8125C11.9791 16.8125 12.2604 17.0625 12.2604 17.4063C12.2604 17.7188 12.0104 18 11.6666 18C11.3541 18 11.0729 17.75 11.0729 17.4063C11.0729 17.0625 11.3541 16.8125 11.6666 16.8125ZM20.8541 13.1875C20.5416 13.1875 20.2604 12.9375 20.2604 12.5938C20.2604 12.2813 20.5104 12 20.8541 12C21.1666 12 21.4479 12.25 21.4479 12.5938C21.4479 12.9063 21.1666 13.1875 20.8541 13.1875ZM20.8541 10.7813C19.8541 10.7813 19.0417 11.5938 19.0417 12.5938C19.0417 12.7813 19.0729 12.9688 19.1354 13.1563L13.1666 16.3438C12.8229 15.8438 12.2604 15.5625 11.6666 15.5625C10.9791 15.5625 10.3541 15.9688 10.0416 16.5625L4.66665 13.75C4.10415 13.4375 3.66665 12.5313 3.72915 11.6563C3.7604 11.2188 3.91665 10.875 4.1354 10.75C4.29165 10.6563 4.4479 10.6875 4.66665 10.7813L4.6979 10.8125C6.1354 11.5625 10.7916 14 10.9791 14.0938C11.2916 14.2188 11.4479 14.2813 11.9791 14.0313L21.6041 9.03126C21.7604 8.96876 21.9166 8.84376 21.9166 8.62501C21.9166 8.34376 21.6354 8.21876 21.6354 8.21876C21.0729 7.96876 20.2291 7.56251 19.4166 7.18751C17.6666 6.37501 15.6666 5.43751 14.7916 4.96876C14.0416 4.56251 13.4166 4.90626 13.3229 4.96876L13.1041 5.06251C9.1354 7.06251 3.8854 9.65626 3.5729 9.84376C3.04165 10.1563 2.6979 10.8125 2.66665 11.625C2.60415 12.9063 3.2604 14.25 4.1979 14.7188L9.8854 17.6563C10.0104 18.5313 10.7916 19.2188 11.6666 19.2188C12.6666 19.2188 13.4479 18.4375 13.4791 17.4375L19.7291 14.0625C20.0416 14.3125 20.4479 14.4375 20.8541 14.4375C21.8541 14.4375 22.6666 13.625 22.6666 12.625C22.6666 11.5938 21.8541 10.7813 20.8541 10.7813Z" fill="#FBFDFD"/>
</svg>