<svg xmlns="http://www.w3.org/2000/svg" width="25" height="24" viewBox="0 0 25 24" fill="none">
  <path d="M12.4178 2C17.8845 2 22.3334 6.56889 22.3334 11.9956C22.3334 17.4222 17.8934 21.9911 12.4178 21.9911L2.33337 22V11.8267C2.33337 6.4 6.94226 2 12.4178 2ZM12.5156 5.8C10.3556 5.79556 8.35115 6.92444 7.2356 8.77333C6.12449 10.6133 6.08004 12.9022 7.11115 14.7867L6.00004 18.3333L9.9956 17.44C12.28 18.4622 14.9645 18.0044 16.7734 16.28C18.5823 14.5733 19.16 11.9244 18.2223 9.61778C17.28 7.30222 15.0223 5.79111 12.5245 5.79556L12.5156 5.8Z" fill="#FBFDFD"/>
</svg>