<svg xmlns="http://www.w3.org/2000/svg" width="25" height="24" viewBox="0 0 25 24" fill="none">
  <path fill-rule="evenodd" clip-rule="evenodd" d="M19.4887 21.039V9.7645C19.4887 5.98577 16.4344 2.92251 12.6666 2.92251C8.89888 2.92251 5.84452 5.98577 5.84452 9.7645V21.039C5.84452 21.0603 5.86168 21.0775 5.88284 21.0775H19.4504C19.4716 21.0775 19.4887 21.0603 19.4887 21.039ZM12.6666 2C8.39087 2 4.92468 5.47628 4.92468 9.7645V21.039C4.92468 21.5697 5.35367 22 5.88284 22H19.4504C19.9796 22 20.4086 21.5697 20.4086 21.039V9.7645C20.4086 5.47628 16.9424 2 12.6666 2Z" fill="#FBFDFD"/>
</svg>