<svg width="25" height="24" viewBox="0 0 25 24" fill="none" xmlns="http://www.w3.org/2000/svg">
<g id="socials">
<path id="Vector" fill-rule="evenodd" clip-rule="evenodd" d="M17.6529 20.1495C17.9216 20.3391 18.2666 20.3868 18.5761 20.2709C18.883 20.1536 19.1107 19.8891 19.1789 19.5686C19.903 16.1663 21.6607 7.55209 22.3194 4.45796C22.3685 4.22341 22.2866 3.98068 22.1039 3.82522C21.9184 3.6684 21.6648 3.62477 21.4384 3.70795C17.9448 5.00206 7.1828 9.03984 2.78365 10.6667C2.50682 10.7703 2.32546 11.0376 2.33364 11.3335C2.34319 11.6281 2.54228 11.8831 2.82728 11.969C4.80049 12.5594 7.38871 13.3804 7.38871 13.3804C7.38871 13.3804 8.59963 17.0349 9.22964 18.8922C9.30873 19.1268 9.49146 19.3095 9.73147 19.3723C9.97283 19.435 10.2292 19.3695 10.4092 19.1991C11.4224 18.2445 12.9865 16.7649 12.9865 16.7649C12.9865 16.7649 15.9647 18.9468 17.6529 20.1495ZM8.47827 12.9167L9.87738 17.5313L10.1897 14.609L18.6743 6.95754C18.7643 6.87572 18.7766 6.73935 18.7016 6.6439C18.628 6.54844 18.4902 6.52526 18.3879 6.58935L8.47963 12.9194L8.47827 12.9167Z" fill="#FBFDFD"/>
</g>
</svg>
