<svg xmlns="http://www.w3.org/2000/svg" width="32" height="32" viewBox="0 0 32 32" fill="none">
  <path d="M11.0528 26.9097C21.1169 26.9097 26.6208 18.5148 26.6208 11.2345C26.6208 10.9945 26.6208 10.7581 26.6044 10.5217C27.6754 9.74168 28.5991 8.77618 29.3337 7.67068C28.3354 8.11615 27.2772 8.40708 26.1917 8.53617C27.3336 7.84887 28.1882 6.76518 28.5973 5.48876C27.5245 6.13061 26.3481 6.58336 25.1244 6.82701C23.4261 5.01056 20.7315 4.5669 18.5495 5.74332C16.3676 6.91974 15.2403 9.42349 15.7985 11.8527C11.3983 11.629 7.29993 9.53622 4.52162 6.09606C3.07065 8.61254 3.8125 11.8327 6.21624 13.4491C5.3453 13.4237 4.49435 13.1873 3.7325 12.76V12.8291C3.7325 15.4529 5.56894 17.7111 8.12179 18.2293C7.31629 18.4512 6.47262 18.4839 5.65258 18.3257C6.36898 20.5694 8.42362 22.1077 10.7637 22.1513C8.82727 23.6841 6.43262 24.5151 3.96887 24.5151C3.53249 24.5133 3.09792 24.486 2.66699 24.4351C5.16892 26.0515 8.07997 26.9079 11.0528 26.9043" fill="#125AFA"/>
</svg>