<svg width="25" height="24" viewBox="0 0 25 24" fill="none" xmlns="http://www.w3.org/2000/svg">
<g id="socials">
<path id="Vector" d="M8.62275 20.1823C16.1708 20.1823 20.2987 13.8861 20.2987 8.42584C20.2987 8.24584 20.2987 8.06855 20.2865 7.89127C21.0897 7.30625 21.7824 6.58212 22.3334 5.75299C21.5847 6.0871 20.791 6.30529 19.9769 6.40212C20.8333 5.88664 21.4742 5.07387 21.7811 4.11656C20.9765 4.59794 20.0942 4.9375 19.1764 5.12024C17.9027 3.7579 15.8817 3.42516 14.2453 4.30747C12.6088 5.18979 11.7633 7.0676 12.182 8.8895C8.88185 8.72177 5.80808 7.15215 3.72435 4.57203C2.63612 6.45939 3.1925 8.8745 4.99531 10.0868C4.3421 10.0677 3.70389 9.89046 3.1325 9.56999V9.62181C3.1325 11.5896 4.50984 13.2833 6.42447 13.672C5.82035 13.8384 5.18759 13.8629 4.57257 13.7443C5.10986 15.4271 6.65084 16.5808 8.40592 16.6135C6.95358 17.7631 5.15759 18.3863 3.30978 18.3863C2.98249 18.3849 2.65657 18.3645 2.33337 18.3263C4.20982 19.5386 6.3931 20.1809 8.62275 20.1782" fill="#FBFDFD"/>
</g>
</svg>
