<svg width="25" height="24" viewBox="0 0 25 24" fill="none" xmlns="http://www.w3.org/2000/svg">
<g id="socials">
<path id="Vector" d="M22.3908 6.94502C22.2713 6.50105 22.0373 6.09626 21.7122 5.77115C21.3871 5.44604 20.9823 5.21203 20.5383 5.09252C18.9033 4.65002 12.3333 4.65002 12.3333 4.65002C12.3333 4.65002 5.76333 4.65002 4.12833 5.09252C3.68436 5.21203 3.27956 5.44604 2.95445 5.77115C2.62935 6.09626 2.39533 6.50105 2.27583 6.94502C1.97054 8.61247 1.82239 10.3049 1.83333 12C1.82239 13.6952 1.97054 15.3876 2.27583 17.055C2.39533 17.499 2.62935 17.9038 2.95445 18.2289C3.27956 18.554 3.68436 18.788 4.12833 18.9075C5.76333 19.35 12.3333 19.35 12.3333 19.35C12.3333 19.35 18.9033 19.35 20.5383 18.9075C20.9823 18.788 21.3871 18.554 21.7122 18.2289C22.0373 17.9038 22.2713 17.499 22.3908 17.055C22.6961 15.3876 22.8443 13.6952 22.8333 12C22.8443 10.3049 22.6961 8.61247 22.3908 6.94502ZM10.2333 15.15V8.85002L15.6858 12L10.2333 15.15Z" fill="#FBFDFD"/>
</g>
</svg>
