<?xml version="1.0" encoding="UTF-8"?><svg id="Layer_1" xmlns="http://www.w3.org/2000/svg" viewBox="0 0 800 800"><defs><style>.cls-1{fill:#125afa;}.cls-1,.cls-2{stroke-width:0px;}.cls-2{fill:#fff;}</style></defs><path class="cls-1" d="M399.91,776.75c-49.27,0-95.58-19.19-130.41-54.04l-193.86-193.86c-34.83-34.83-54.01-81.14-54.01-130.39s19.18-95.57,54.01-130.4l193.88-193.88c34.85-34.83,81.15-54.01,130.39-54.01s95.56,19.18,130.39,54.01l193.89,193.89c71.89,71.87,71.9,188.85.02,260.76l-193.91,193.9c-34.84,34.83-81.15,54.01-130.39,54.01Z"/><path class="cls-2" d="M399.91,706.75c-30.57,0-59.3-11.91-80.9-33.52l-193.87-193.87c-21.61-21.61-33.51-50.34-33.51-80.9s11.9-59.29,33.51-80.9l193.88-193.88c21.61-21.6,50.35-33.51,80.89-33.51s59.29,11.9,80.9,33.5l193.88,193.89c44.6,44.59,44.61,117.17.01,161.78l-193.9,193.89c-21.61,21.61-50.34,33.51-80.89,33.51Z"/><path class="cls-2" d="M415.76,34.87l16.08,3.02c7.38,1.39,11.26,5.85,10.21,11.43-.69,3.66-3.28,6.03-6.94,6.5,4.23,2.06,6.21,5.84,5.35,10.4-1.19,6.32-6.39,9.46-14.3,7.97l-17.19-3.23,6.79-36.09ZM425.36,65.64c2.33.44,3.92-.69,4.29-2.65.38-2.02-.69-3.65-2.97-4.08l-3.56-.67-1.27,6.74,3.5.66ZM427.66,51.34c1.96.37,3.31-.64,3.63-2.34s-.63-3.08-2.59-3.45l-3.08-.58-1.09,5.79,3.13.59Z"/><path class="cls-2" d="M446.54,59.29c5.01-9.99,15.81-13.33,26.23-8.11,10.33,5.18,14.11,15.83,9.1,25.82-5.08,10.14-15.9,13.53-26.23,8.35-10.42-5.23-14.18-15.93-9.1-26.06ZM460.48,75.7c4.29,2.15,8.91.54,11.09-3.8s.66-8.91-3.63-11.06c-4.34-2.18-8.96-.69-11.14,3.66s-.66,9.03,3.68,11.21Z"/><path class="cls-2" d="M486.43,80.41c7.8-8,19.11-7.91,27.46.23,8.27,8.07,8.64,19.37.84,27.37-7.92,8.12-19.26,8.07-27.53,0-8.35-8.14-8.68-19.48-.76-27.6ZM494.74,100.27c3.44,3.36,8.33,3.22,11.72-.26s3.33-8.29-.11-11.64c-3.48-3.39-8.33-3.37-11.72.11s-3.37,8.4.11,11.8Z"/><path class="cls-2" d="M511.13,113.76l7.87,7.86c-1.41,1.41-1.6,2.9-.46,4.05.76.76,1.72.73,2.48-.04,1.15-1.15.46-2.83-.04-4.31l-1.03-3.4c-1.49-4.85-1.6-9.32,2.29-13.21,4.66-4.66,11.57-4.08,17.03,1.38,5.84,5.84,5.99,12.64.46,18.17l-7.75-7.75c1.41-1.41,1.53-2.67.5-3.7-.73-.73-1.68-.84-2.37-.15-.95.95-.5,2.1.19,4.77l1.07,3.82c1.79,6.45.27,9.81-2.52,12.6-4.85,4.85-11.3,4.43-16.76-1.03-6.34-6.34-6.6-13.4-.96-19.05Z"/><path class="cls-2" d="M548.4,129.5l-5.61-5.61,6.64-6.64,19.51,19.51-6.64,6.64-5.57-5.57-19.32,19.32-8.32-8.32,19.32-19.32Z"/><path class="cls-2" d="M571.29,139.11l18.82,18.82-6.57,6.57-10.5-10.5-3.13,3.13,10.5,10.5-6.38,6.38-10.5-10.5-3.32,3.32,10.5,10.5-6.57,6.57-18.82-18.82,25.96-25.96Z"/><path class="cls-2" d="M592.66,160.47l11.99,11.99c6.03,6.03,6.34,12.6,1.64,17.29-3.02,3.02-6.87,3.82-10.8,2.48l-6.11,16.87-8.48-8.48,5.5-13.9-1.68-1.68-9.7,9.7-8.32-8.32,25.96-25.96ZM592.93,181.74c1.57,1.57,3.44,1.68,4.77.34s1.18-3.17-.38-4.73l-2.44-2.44-4.39,4.39,2.44,2.44Z"/><path class="cls-2" d="M610.71,204.33c7.9-7.9,19.2-7.67,27.45.57,6.99,6.99,7.98,16.45,1.64,24.78l-8.13-8.13c1.79-3.02,1.34-6.53-1.41-9.28-3.32-3.32-8.02-3.21-11.45.23-3.44,3.44-3.63,8.21-.27,11.57,2.79,2.79,6.34,3.21,9.77.84l8.17,8.17c-8.25,6.95-18.02,6.18-25.35-1.15-8.25-8.25-8.44-19.58-.42-27.6Z"/><path class="cls-2" d="M652.79,220.61l8.32,8.32-19.32,19.32,8.86,8.86-6.64,6.64-17.18-17.18,25.96-25.96Z"/><path class="cls-2" d="M655.96,254.69l15.46-15.46,8.28,8.29-15.12,15.12c-2.41,2.41-2.71,4.77-.84,6.64,1.87,1.87,4.2,1.53,6.6-.88l15.12-15.12,8.32,8.32-15.46,15.46c-6.91,6.91-15.23,6.83-22.22-.15-7.02-7.02-7.06-15.31-.15-22.22Z"/><path class="cls-2" d="M696.4,264.21l11.57,11.57c5.31,5.31,5.99,11.19,1.99,15.19-2.63,2.63-6.11,3.13-9.39,1.45,2.33,4.08,1.83,8.32-1.45,11.61-4.54,4.54-10.61,4.2-16.3-1.49l-12.37-12.37,25.96-25.96ZM686.97,295.02c1.68,1.68,3.63,1.64,5.04.23s1.49-3.4-.15-5.04l-2.56-2.56-4.85,4.85,2.52,2.52ZM696.93,284.52c1.41,1.41,3.09,1.34,4.31.12s1.22-2.9-.19-4.31l-2.21-2.21-4.16,4.16,2.25,2.25Z"/><path class="cls-2" d="M730.91,299.82l8.74,13.83c4.01,6.35,3.38,12.23-1.41,15.26-3.15,1.99-6.65,1.71-9.48-.65,1.37,4.5-.04,8.52-3.97,11-5.43,3.43-11.28,1.76-15.58-5.04l-9.34-14.79,31.04-19.61ZM714.93,327.8c1.27,2.01,3.18,2.4,4.87,1.33,1.74-1.1,2.2-2.99.96-4.95l-1.93-3.06-5.8,3.66,1.9,3.01ZM726.96,319.75c1.07,1.69,2.72,1.99,4.18,1.06s1.83-2.56.76-4.25l-1.67-2.65-4.98,3.14,1.7,2.69Z"/><path class="cls-2" d="M734,338.98c10.73-3.14,20.53,2.49,23.81,13.69,3.24,11.09-1.99,21.12-12.72,24.25-10.88,3.18-20.74-2.43-23.98-13.53-3.27-11.2,2.01-21.24,12.89-24.42ZM731.48,360.37c1.35,4.61,5.67,6.89,10.34,5.53,4.67-1.36,6.98-5.58,5.63-10.2-1.36-4.67-5.6-7.03-10.26-5.66s-7.06,5.67-5.7,10.33Z"/><path class="cls-2" d="M745.83,382.62c11.17.33,18.76,8.7,18.42,20.36-.34,11.55-8.4,19.47-19.57,19.15-11.33-.33-18.98-8.71-18.64-20.26.34-11.66,8.46-19.58,19.79-19.25ZM736.83,402.18c-.14,4.8,3.27,8.31,8.13,8.45,4.86.14,8.36-3.16,8.5-7.96.14-4.86-3.16-8.41-8.02-8.55-4.86-.14-8.47,3.21-8.61,8.07Z"/><path class="cls-2" d="M737.25,424.18l-3.13,10.67c-1.92-.56-3.32-.02-3.77,1.54-.3,1.04.19,1.86,1.22,2.16,1.55.46,2.7-.95,3.77-2.1l2.49-2.53c3.54-3.63,7.41-5.87,12.7-4.32,6.32,1.86,9.13,8.2,6.96,15.61-2.33,7.93-8.22,11.32-15.73,9.12l3.09-10.52c1.92.56,3.08.06,3.49-1.34.29-.98-.07-1.88-1-2.15-1.3-.38-2.08.57-4.1,2.46l-2.84,2.77c-4.8,4.67-8.49,4.94-12.27,3.83-6.58-1.93-9.31-7.8-7.13-15.21,2.53-8.6,8.6-12.22,16.27-9.97Z"/><path class="cls-2" d="M737.84,467.54l3.87-6.93,8.21,4.58-13.44,24.1-8.21-4.58,3.84-6.89-23.87-13.31,5.74-10.28,23.87,13.31Z"/><path class="cls-2" d="M730.76,497.08l-17.83,19.77-6.9-6.22,9.95-11.03-3.29-2.97-9.95,11.03-6.7-6.04,9.94-11.03-3.49-3.15-9.95,11.03-6.9-6.22,17.83-19.77,27.27,24.59Z"/><path class="cls-2" d="M709.04,520.07l-11.99,11.99c-6.03,6.03-12.6,6.34-17.29,1.64-3.02-3.02-3.82-6.87-2.48-10.8l-16.87-6.11,8.48-8.48,13.9,5.5,1.68-1.68-9.7-9.7,8.32-8.32,25.96,25.96ZM687.77,520.34c-1.57,1.57-1.68,3.44-.34,4.77,1.34,1.34,3.17,1.18,4.73-.38l2.44-2.44-4.39-4.39-2.44,2.44Z"/><path class="cls-2" d="M665.17,538.14c7.9,7.9,7.67,19.2-.57,27.45-6.99,6.99-16.45,7.98-24.78,1.64l8.13-8.13c3.02,1.79,6.53,1.34,9.28-1.41,3.32-3.32,3.21-8.02-.23-11.45-3.44-3.44-8.21-3.63-11.57-.27-2.79,2.79-3.21,6.34-.84,9.77l-8.17,8.17c-6.95-8.25-6.18-18.02,1.15-25.35,8.25-8.25,19.58-8.44,27.6-.42Z"/><path class="cls-2" d="M648.9,580.21l-8.32,8.32-19.32-19.32-8.86,8.86-6.64-6.64,17.18-17.18,25.96,25.96Z"/><path class="cls-2" d="M614.8,583.39l15.46,15.46-8.29,8.29-15.12-15.12c-2.41-2.41-4.77-2.71-6.64-.84-1.87,1.87-1.53,4.2.88,6.61l15.12,15.12-8.32,8.32-15.46-15.46c-6.91-6.91-6.83-15.23.15-22.22,7.02-7.03,15.31-7.06,22.22-.15Z"/><path class="cls-2" d="M605.3,623.81l-11.57,11.57c-5.31,5.31-11.19,5.99-15.19,1.99-2.63-2.63-3.13-6.11-1.45-9.39-4.08,2.33-8.32,1.83-11.61-1.45-4.54-4.54-4.2-10.61,1.49-16.3l12.37-12.37,25.96,25.96ZM574.49,614.38c-1.68,1.68-1.64,3.63-.23,5.04s3.4,1.49,5.04-.15l2.56-2.56-4.85-4.85-2.52,2.52ZM584.99,624.35c-1.41,1.41-1.34,3.09-.12,4.31s2.9,1.22,4.31-.19l2.21-2.21-4.16-4.16-2.25,2.25Z"/><path class="cls-2" d="M574.63,654.48l-11.57,11.57c-5.31,5.31-11.19,5.99-15.19,1.99-2.63-2.63-3.13-6.11-1.45-9.39-4.08,2.33-8.32,1.83-11.61-1.45-4.54-4.54-4.2-10.61,1.49-16.3l12.37-12.37,25.96,25.96ZM543.82,645.05c-1.68,1.68-1.64,3.63-.23,5.04,1.45,1.45,3.4,1.49,5.04-.15l2.56-2.56-4.85-4.85-2.52,2.52ZM554.32,655.02c-1.41,1.41-1.34,3.09-.12,4.31,1.22,1.22,2.9,1.22,4.31-.19l2.21-2.21-4.16-4.16-2.25,2.25Z"/><path class="cls-2" d="M539.2,664.1c7.9,7.9,7.67,19.2-.57,27.45-8.17,8.17-19.47,8.4-27.37.5s-7.83-19.36.34-27.53,19.58-8.44,27.6-.42ZM519.24,672.16c-3.4,3.4-3.32,8.28.11,11.72s8.25,3.44,11.64.04c3.44-3.44,3.47-8.28.04-11.72-3.44-3.44-8.36-3.47-11.8-.04Z"/><path class="cls-2" d="M509.72,694.93c7.4,8.38,6.47,19.65-2.28,27.36-8.66,7.65-19.96,7.17-27.36-1.21-7.5-8.5-6.61-19.81,2.05-27.46,8.74-7.72,20.07-7.21,27.58,1.3ZM489.28,701.73c-3.6,3.18-3.83,8.06-.61,11.71,3.22,3.64,8.02,3.94,11.62.76,3.64-3.22,3.98-8.05.77-11.7-3.22-3.64-8.13-3.99-11.77-.77Z"/><path class="cls-2" d="M473.48,717.01l-9.95,4.98c-.89-1.79-2.25-2.44-3.7-1.71-.97.48-1.23,1.4-.75,2.37.72,1.45,2.54,1.33,4.11,1.33l3.55.1c5.07.12,9.35,1.42,11.81,6.35,2.95,5.89.22,12.27-6.69,15.72-7.39,3.7-13.88,1.69-17.39-5.31l9.8-4.9c.89,1.79,2.05,2.29,3.36,1.64.92-.46,1.33-1.33.89-2.2-.6-1.21-1.83-1.13-4.59-1.33l-3.96-.19c-6.69-.34-9.39-2.85-11.16-6.37-3.07-6.13-.63-12.12,6.28-15.58,8.02-4.01,14.8-2.03,18.38,5.12Z"/><path class="cls-2" d="M442.12,746.97l7.71-1.89,2.24,9.12-26.8,6.57-2.24-9.13,7.66-1.88-6.5-26.54,11.43-2.8,6.5,26.54Z"/><path class="cls-2" d="M415.73,761.9l-26.62.48-.17-9.29,14.85-.27-.08-4.43-14.85.27-.16-9.02,14.85-.27-.08-4.7-14.85.27-.17-9.29,26.62-.48.66,36.71Z"/><path class="cls-2" d="M378.81,761.54l-16.54-3.74c-8.32-1.88-12.09-7.27-10.62-13.75.94-4.16,3.77-6.9,7.81-7.87l-3.84-17.53,11.69,2.64,2.77,14.69,2.32.52,3.02-13.38,11.48,2.59-8.09,35.82ZM367.23,743.7c-2.16-.49-3.8.41-4.22,2.26-.42,1.84.69,3.31,2.85,3.8l3.37.76,1.37-6.06-3.37-.76Z"/><path class="cls-2" d="M337.18,731.03c-6.14,9.34-17.25,11.4-27,5-8.26-5.43-11.15-14.5-6.62-23.93l9.61,6.32c-1.15,3.32.01,6.67,3.26,8.8,3.93,2.58,8.5,1.52,11.17-2.54,2.67-4.06,1.89-8.77-2.08-11.38-3.29-2.17-6.86-1.86-9.74,1.16l-9.66-6.35c6.67-8.47,16.4-9.71,25.06-4.01,9.75,6.41,12.23,17.47,6,26.95Z"/><path class="cls-2" d="M289.3,718.69l-8.32-8.32,19.32-19.32-8.86-8.86,6.64-6.64,17.18,17.18-25.96,25.96Z"/><path class="cls-2" d="M286.12,684.59l-15.46,15.46-8.28-8.29,15.12-15.12c2.41-2.41,2.71-4.77.84-6.64s-4.2-1.53-6.6.88l-15.12,15.12-8.32-8.32,15.46-15.46c6.91-6.91,15.23-6.83,22.22.15,7.02,7.03,7.06,15.31.15,22.22Z"/><path class="cls-2" d="M245.69,675.08l-11.57-11.57c-5.31-5.31-5.99-11.19-1.99-15.19,2.63-2.63,6.11-3.13,9.39-1.45-2.33-4.09-1.83-8.32,1.45-11.61,4.54-4.54,10.61-4.2,16.3,1.49l12.37,12.37-25.96,25.96ZM245.15,654.77c-1.41-1.41-3.09-1.34-4.31-.11s-1.22,2.9.19,4.31l2.21,2.21,4.16-4.16-2.25-2.25ZM255.12,644.27c-1.68-1.68-3.63-1.64-5.04-.23-1.45,1.45-1.49,3.4.15,5.04l2.56,2.56,4.85-4.85-2.52-2.52Z"/><path class="cls-2" d="M215.02,644.41l-11.57-11.57c-5.31-5.31-5.99-11.19-1.99-15.2,2.63-2.63,6.11-3.13,9.39-1.45-2.33-4.08-1.83-8.32,1.45-11.61,4.54-4.54,10.61-4.2,16.3,1.49l12.37,12.37-25.96,25.96ZM214.49,624.1c-1.41-1.41-3.09-1.34-4.31-.11s-1.22,2.9.19,4.31l2.21,2.21,4.16-4.16-2.25-2.25ZM224.45,613.6c-1.68-1.68-3.63-1.64-5.04-.23s-1.49,3.4.15,5.04l2.56,2.56,4.85-4.85-2.52-2.52Z"/><path class="cls-2" d="M205.4,608.99c-7.9,7.9-19.2,7.67-27.45-.57-8.17-8.17-8.4-19.47-.5-27.37,8.02-8.02,19.36-7.83,27.53.34,8.25,8.25,8.44,19.59.42,27.6ZM197.35,589.02c-3.4-3.4-8.29-3.32-11.72.11s-3.44,8.25-.04,11.64,8.28,3.47,11.72.04c3.44-3.44,3.47-8.36.04-11.8Z"/><path class="cls-2" d="M175.7,579.28c-7.9,7.9-19.2,7.67-27.45-.57-8.17-8.17-8.4-19.47-.5-27.37s19.36-7.83,27.53.34c8.25,8.25,8.44,19.59.42,27.6ZM167.64,559.32c-3.4-3.4-8.29-3.32-11.72.11s-3.44,8.25-.04,11.64,8.28,3.47,11.72.04c3.44-3.44,3.47-8.36.04-11.8Z"/><path class="cls-2" d="M151.24,545.81l-7.86-7.86c1.41-1.41,1.6-2.9.46-4.05-.76-.76-1.72-.73-2.48.04-1.15,1.15-.46,2.83.04,4.31l1.03,3.4c1.49,4.85,1.6,9.31-2.29,13.21-4.66,4.66-11.57,4.08-17.03-1.38-5.84-5.84-5.99-12.64-.46-18.17l7.75,7.75c-1.41,1.41-1.53,2.67-.5,3.7.73.72,1.68.84,2.37.15.95-.95.5-2.1-.19-4.77l-1.07-3.82c-1.79-6.45-.27-9.81,2.52-12.6,4.85-4.85,11.3-4.43,16.76,1.03,6.34,6.34,6.6,13.4.95,19.05Z"/><path class="cls-2" d="M113.98,530.09l5.61,5.61-6.64,6.64-19.51-19.51,6.64-6.64,5.57,5.57,19.32-19.32,8.32,8.32-19.32,19.32Z"/><path class="cls-2" d="M90.55,520.26l-18.46-19.18,6.69-6.44,10.3,10.7,3.19-3.07-10.3-10.7,6.5-6.25,10.3,10.7,3.38-3.26-10.3-10.7,6.69-6.44,18.46,19.18-26.46,25.46Z"/><path class="cls-2" d="M65.66,492.94l-8.5-14.67c-4.28-7.38-2.89-13.81,2.86-17.14,3.69-2.14,7.62-1.92,11.08.38l10.24-14.74,6.01,10.37-8.89,12.02,1.19,2.06,11.87-6.88,5.9,10.19-31.77,18.42ZM70.87,472.32c-1.11-1.92-2.89-2.51-4.52-1.56-1.63.95-1.96,2.76-.85,4.67l1.73,2.99,5.37-3.11-1.73-2.99Z"/><path class="cls-2" d="M59.74,441.7c-11.02,1.87-20.11-4.85-22.06-16.35-1.66-9.74,3.01-18.04,13-21.16l1.93,11.34c-3.21,1.42-4.87,4.55-4.22,8.38.79,4.63,4.68,7.26,9.48,6.44,4.79-.81,7.71-4.6,6.91-9.28-.66-3.89-3.31-6.28-7.49-6.34l-1.94-11.39c10.75-.9,18.28,5.38,20.02,15.61,1.96,11.5-4.45,20.86-15.63,22.76Z"/><path class="cls-2" d="M35.79,396.92l.97-11.73,27.23,2.25,1.03-12.49,9.36.77-2,24.22-36.6-3.02Z"/><path class="cls-2" d="M59.87,371.03l-20.85-6.61,3.54-11.17,20.39,6.46c3.24,1.03,5.49.21,6.29-2.31.8-2.52-.58-4.43-3.82-5.46l-20.39-6.46,3.56-11.22,20.85,6.61c9.32,2.95,13.08,10.38,10.1,19.8-3,9.47-10.34,13.32-19.66,10.37Z"/><path class="cls-2" d="M53.31,324.44l8.72-13.84c4-6.35,9.58-8.32,14.38-5.3,3.15,1.99,4.41,5.26,3.49,8.84,3.47-3.18,7.71-3.63,11.64-1.15,5.44,3.42,6.45,9.42,2.16,16.23l-9.32,14.8-31.07-19.57ZM73,319.42c1.07-1.69.62-3.31-.84-4.23s-3.1-.55-4.17,1.14l-1.67,2.65,4.98,3.14,1.7-2.7ZM85.45,326.82c1.27-2.01.8-3.9-.89-4.96-1.74-1.09-3.64-.7-4.88,1.26l-1.93,3.06,5.8,3.66,1.9-3.02Z"/><path class="cls-2" d="M82.76,284.76l11.57-11.57c5.31-5.31,11.19-5.99,15.19-1.99,2.63,2.63,3.13,6.11,1.45,9.39,4.08-2.33,8.32-1.83,11.61,1.45,4.54,4.54,4.2,10.61-1.49,16.3l-12.37,12.37-25.96-25.96ZM103.07,284.23c1.41-1.41,1.34-3.09.12-4.31s-2.9-1.22-4.31.19l-2.21,2.21,4.16,4.16,2.25-2.25ZM113.57,294.19c1.68-1.68,1.64-3.63.23-5.04s-3.4-1.49-5.04.15l-2.56,2.56,4.85,4.85,2.52-2.52Z"/><path class="cls-2" d="M118.21,275.13c-7.9-7.9-7.67-19.2.57-27.45s19.47-8.4,27.37-.5c8.02,8.02,7.83,19.36-.34,27.53-8.25,8.25-19.58,8.44-27.6.42ZM138.18,267.07c3.4-3.4,3.32-8.29-.11-11.72-3.44-3.44-8.25-3.44-11.64-.04-3.44,3.44-3.47,8.28-.04,11.72,3.44,3.44,8.36,3.47,11.8.04Z"/><path class="cls-2" d="M147.91,245.42c-7.9-7.9-7.67-19.2.57-27.45s19.47-8.4,27.37-.5c8.02,8.02,7.83,19.36-.34,27.53-8.25,8.25-19.58,8.44-27.6.42ZM167.88,237.37c3.4-3.4,3.32-8.29-.11-11.72-3.44-3.44-8.25-3.44-11.64-.04-3.44,3.44-3.47,8.28-.04,11.72,3.44,3.44,8.36,3.47,11.8.04Z"/><path class="cls-2" d="M181.36,220.98l7.86-7.86c1.41,1.41,2.9,1.6,4.05.46.76-.76.73-1.72-.04-2.48-1.15-1.15-2.83-.46-4.31.04l-3.4,1.03c-4.85,1.49-9.32,1.6-13.21-2.29-4.66-4.66-4.08-11.57,1.38-17.03,5.84-5.84,12.64-5.99,18.17-.46l-7.75,7.75c-1.41-1.41-2.67-1.53-3.7-.5-.73.73-.84,1.68-.15,2.37.95.95,2.1.5,4.77-.19l3.82-1.07c6.45-1.79,9.81-.27,12.6,2.52,4.85,4.85,4.43,11.3-1.03,16.76-6.34,6.34-13.4,6.6-19.05.95Z"/><path class="cls-2" d="M197.1,183.72l-5.61,5.61-6.64-6.64,19.51-19.51,6.64,6.64-5.57,5.57,19.32,19.32-8.32,8.32-19.32-19.32Z"/><path class="cls-2" d="M206.72,160.81l18.82-18.82,6.57,6.57-10.5,10.5,3.13,3.13,10.5-10.5,6.38,6.38-10.5,10.5,3.32,3.32,10.5-10.5,6.57,6.57-18.82,18.82-25.96-25.96Z"/><path class="cls-2" d="M228.08,139.45l11.99-11.99c6.03-6.03,12.6-6.34,17.29-1.64,3.02,3.02,3.82,6.87,2.48,10.8l16.87,6.11-8.48,8.48-13.9-5.5-1.68,1.68,9.7,9.7-8.32,8.32-25.96-25.96ZM249.34,139.19c1.57-1.57,1.68-3.44.34-4.77s-3.17-1.18-4.73.38l-2.44,2.44,4.39,4.39,2.44-2.44Z"/><path class="cls-2" d="M271.94,121.4c-7.9-7.9-7.67-19.2.57-27.45,6.99-6.99,16.45-7.98,24.78-1.64l-8.13,8.13c-3.02-1.79-6.53-1.34-9.28,1.41-3.32,3.32-3.21,8.02.23,11.45s8.21,3.63,11.57.27c2.79-2.79,3.21-6.34.84-9.77l8.17-8.17c6.95,8.25,6.18,18.02-1.15,25.35-8.25,8.25-19.58,8.44-27.6.42Z"/><path class="cls-2" d="M290.34,76.8l9.24-7.29,16.92,21.45,9.83-7.76,5.82,7.38-19.08,15.05-22.74-28.82Z"/><path class="cls-2" d="M325.73,76.73l-9.34-19.78,10.6-5.01,9.14,19.34c1.45,3.08,3.58,4.16,5.97,3.03,2.39-1.13,2.85-3.44,1.4-6.52l-9.14-19.34,10.64-5.03,9.34,19.78c4.18,8.84,1.3,16.65-7.64,20.87-8.98,4.25-16.8,1.49-20.97-7.35Z"/><path class="cls-2" d="M355.41,40.24l16.08-3.02c7.38-1.39,12.62,1.37,13.67,6.94.69,3.66-.86,6.81-4.1,8.57,4.69.38,7.91,3.19,8.76,7.75,1.19,6.32-2.52,11.13-10.43,12.62l-17.19,3.23-6.78-36.09ZM372.48,51.27c1.96-.37,2.85-1.8,2.53-3.5-.32-1.7-1.71-2.65-3.67-2.28l-3.08.58,1.09,5.79,3.13-.59ZM375.52,65.42c2.33-.44,3.4-2.07,3.03-4.03-.38-2.02-1.96-3.15-4.25-2.72l-3.56.67,1.27,6.74,3.5-.66Z"/><path class="cls-1" d="M399.91,648.75c-15.07,0-29.23-5.87-39.88-16.52l-193.88-193.88c-10.65-10.65-16.52-24.82-16.52-39.88s5.87-29.23,16.52-39.88l193.88-193.88c10.66-10.65,24.82-16.52,39.88-16.52s29.23,5.87,39.88,16.52l193.88,193.89c21.99,21.99,21.99,57.77,0,79.76l-193.89,193.88c-10.66,10.65-24.82,16.52-39.88,16.52Z"/><path class="cls-1" d="M399.91,648.75c-15.07,0-29.23-5.87-39.88-16.52l-193.88-193.88c-10.65-10.65-16.52-24.82-16.52-39.88s5.87-29.23,16.52-39.88l193.88-193.88c10.66-10.65,24.82-16.52,39.88-16.52s29.23,5.87,39.88,16.52l193.88,193.89c21.99,21.99,21.99,57.77,0,79.76l-193.89,193.88c-10.66,10.65-24.82,16.52-39.88,16.52Z"/><path class="cls-1" d="M399.91,648.75c-15.07,0-29.23-5.87-39.88-16.52l-193.88-193.88c-10.65-10.65-16.52-24.82-16.52-39.88s5.87-29.23,16.52-39.88l193.88-193.88c10.66-10.65,24.82-16.52,39.88-16.52s29.23,5.87,39.88,16.52l193.88,193.89c21.99,21.99,21.99,57.77,0,79.76l-193.89,193.88c-10.66,10.65-24.82,16.52-39.88,16.52Z"/><path class="cls-2" d="M399.91,627.05c-9.27,0-17.99-3.61-24.55-10.17l-193.88-193.88c-6.56-6.56-10.17-15.27-10.17-24.55s3.61-17.99,10.17-24.54l193.88-193.88c13.53-13.53,35.55-13.53,49.09,0l193.88,193.88c13.53,13.53,13.53,35.55,0,49.09l-193.89,193.88c-6.55,6.56-15.27,10.17-24.54,10.17ZM387.64,192.31l-193.88,193.88c-3.28,3.28-5.08,7.64-5.08,12.27s1.8,9,5.08,12.27l193.88,193.88c6.56,6.56,17.99,6.56,24.54,0l193.89-193.88c6.76-6.77,6.76-17.78,0-24.55l-193.88-193.88c-6.77-6.76-17.78-6.76-24.55,0h0Z"/><path class="cls-2" d="M313.14,303.01c0-14.38,11.66-26.03,26.03-26.03s26.03,11.66,26.03,26.03v69.42c0,14.38-11.66,26.03-26.03,26.03s-26.03-11.66-26.03-26.03v-69.42Z"/><path class="cls-2" d="M434.62,303.01c0-14.38,11.66-26.03,26.03-26.03s26.03,11.66,26.03,26.03v69.42c0,14.38-11.66,26.03-26.03,26.03s-26.03-11.66-26.03-26.03v-69.42Z"/><path class="cls-2" d="M484.8,415.82c14.43,0,22.1,7.67,18.63,21.84-1.28,5.22-2.93,14.68-4.97,19.67-5.36,13.16-13.22,25.12-23.13,35.19-9.91,10.07-21.67,18.06-34.61,23.51-12.94,5.45-26.82,8.26-40.83,8.26s-27.88-2.81-40.83-8.26c-12.94-5.45-24.7-13.44-34.61-23.51-9.91-10.07-17.76-22.03-23.13-35.19-2.03-4.99-3.69-14.45-4.97-19.67-3.47-14.17,4.2-21.84,18.63-21.84h169.79Z"/><path class="cls-1" d="M401.13,669.25l-.84,2.56c-.98,3.06-3.19,4.6-6.88,4.15l-1.75-.22c-1.67-.21-2.88-.84-3.49-1.8l-.65,1.98c-.21.74.1,1.18.81,1.27l1.11.14c.63.08.95-.17,1.09-.63l7.03.87c-1.25,3.92-4.01,5.71-8.42,5.17l-5.2-.64c-3.93-.49-5.99-3.4-4.67-7.55l3.9-12.3,7.9.98-.52,1.63c1.18-1.06,2.81-1.55,4.96-1.28l1.79.22c3.1.38,4.82,2.41,3.84,5.47ZM392.29,667.72l-.71-.09c-.87-.11-1.48.26-1.74,1.03l-.35,1.21c-.26.77.12,1.3.95,1.41l.71.09c1.03.13,1.53-.29,1.75-1.07l.39-1.16c.26-.77-.16-1.31-.99-1.41Z"/><path class="cls-1" d="M380.98,668.72l-3.58,5.63c-2.31,3.68-5.34,4.96-9.19,3.39l-1.96-.8c-1.71-.69-2.74-1.76-3.03-3.17l-5.58,8.74-7.82-3.17,15.31-24,7.34,2.98-1.15,1.78c1.67-.92,3.58-.96,5.73-.09l1.96.8c3.37,1.37,4.32,4.26,1.96,7.92ZM372.02,664.74l-1.11-.45c-.82-.33-1.52-.19-1.89.4l-2.64,4.15c-.45.68-.26,1.28.59,1.62l1.07.44c.93.38,1.55.11,2-.57l2.52-3.98c.43-.73.26-1.28-.56-1.61Z"/><path class="cls-1" d="M362.85,659.8l-2,1.8c-2.38,2.16-5.06,2.4-8.03.16l-1.41-1.06c-1.34-1.01-2.08-2.16-2.12-3.3l-1.55,1.39c-.55.54-.51,1.07.07,1.5l.89.67c.51.38.9.33,1.26,0l5.66,4.26c-3.04,2.77-6.33,2.95-9.87.28l-4.19-3.15c-3.16-2.38-3.49-5.93-.28-8.87l9.51-8.71,6.36,4.79-1.27,1.15c1.55-.33,3.21.06,4.93,1.36l1.44,1.08c2.49,1.88,2.98,4.49.59,6.66ZM355.96,654.06l-.58-.43c-.7-.53-1.41-.51-2.02.03l-.91.87c-.61.54-.55,1.19.12,1.7l.58.43c.83.62,1.47.51,2.05-.06l.91-.81c.61-.54.51-1.21-.16-1.72Z"/><path class="cls-1" d="M334.43,655.34l-5.74-5.74,1.5-1.05c-1.75.06-3.37-.59-4.92-2.15l-1.5-1.5c-2.55-2.55-2.32-5.6,1.27-8.06l5.49-3.79c3.59-2.46,6.85-2.49,9.79.45l1.5,1.5c1.3,1.3,1.84,2.69,1.58,4.13l7.38-5.12,5.97,5.97-22.32,15.36ZM338.65,640.72l-.85-.85c-.68-.68-1.33-.71-2.04-.23l-3.9,2.66c-.65.48-.71,1.1-.08,1.73l.85.85c.74.74,1.3.74,1.98.23l3.93-2.69c.76-.48.71-1.1.11-1.7Z"/><path class="cls-1" d="M328.04,629.71l-5.94,4.07,1.78,1.78-5.46,3.76-1.81-1.81-5.09,3.51-5.94-5.94,5.09-3.51-1.9-1.89,5.46-3.76,1.9,1.9,4.64-3.17c.62-.45.71-.88.14-1.44l-.93-.93,5.26-3.62,3.25,3.25c2.91,2.91,2.86,5.52-.45,7.81Z"/><path class="cls-1" d="M318.04,620.78l-5.23,3.59c-3.45,2.38-7.55,2.01-10.98-1.41l-3.03-3.03c-3.11-3.11-3.08-6.82.37-9.19l3.14-2.18,7.86,7.86,1.81-1.25c.68-.45.65-1.16.06-1.75l-.34-.34c-.65-.65-1.33-.65-2.04-.23l-.45.28-5.52-5.52.71-.48c3.48-2.35,7.67-1.9,10.98,1.42l3.03,3.03c3.14,3.14,3.08,6.82-.37,9.19ZM305.48,615.75l-1.1.76c-.65.42-.71,1.05-.08,1.67l.34.34c.74.74,1.42.74,2.04.28l1.13-.74-2.32-2.32Z"/><path class="cls-1" d="M291.95,612.86l-5.57-5.57,1.44-.99c-1.84.03-3.54-.59-5.32-2.09l6.54-4.5c1.81,2.15,3.73,2.43,6.2.88l7.07-4.87,5.97,5.97-16.32,11.17Z"/><path class="cls-1" d="M297.7,595.41c-1.78,1.78-4.87,1.98-7.1-.25-1.61-1.61-1.7-3.62-.17-5.15,1.75-1.75,4.87-2.09,7.02.06,1.67,1.67,1.81,3.79.25,5.35Z"/><path class="cls-1" d="M281.37,593.06l1.5,1.5-5.46,3.76-1.5-1.5-2.26,1.58c-3.34,2.26-6.05,2.21-9.33-1.08l-3.28-3.28,5.29-3.59.93.93c.59.59,1.07.57,1.73.14l.96-.68-8.54-8.54,16.29-11.2,5.91,5.91-10.81,7.41,2.66,2.66,10.81-7.41,5.94,5.94-10.83,7.44Z"/><path class="cls-1" d="M266.57,566.71l-2.24,1.5c-2.66,1.81-5.35,1.67-7.98-.96l-1.25-1.25c-1.19-1.19-1.75-2.43-1.64-3.56l-1.73,1.16c-.62.45-.65.99-.14,1.5l.79.79c.45.45.85.45,1.25.17l5.01,5.01c-3.4,2.32-6.68,2.04-9.82-1.1l-3.71-3.71c-2.8-2.8-2.63-6.37.96-8.83l10.64-7.3,5.63,5.63-1.41.96c1.58-.11,3.17.51,4.7,2.04l1.27,1.27c2.21,2.21,2.32,4.87-.34,6.68ZM260.54,560.06l-.51-.51c-.62-.62-1.33-.71-2.01-.25l-1.02.74c-.68.45-.71,1.1-.11,1.7l.51.51c.74.74,1.39.71,2.04.23l1.02-.68c.68-.45.68-1.13.08-1.73Z"/><path class="cls-1" d="M249.58,552.1l-5.49,3.79c-3.57,2.49-6.85,2.49-9.79-.45l-1.5-1.5c-1.3-1.3-1.84-2.69-1.56-4.1l-8.54,5.88-5.97-5.97,23.45-16.15,5.6,5.6-1.75,1.19c1.9-.2,3.68.51,5.32,2.15l1.5,1.5c2.57,2.57,2.32,5.6-1.27,8.06ZM242.88,544.95l-.85-.85c-.62-.62-1.33-.76-1.9-.37l-4.05,2.8c-.68.45-.74,1.07-.08,1.73l.82.82c.71.71,1.39.71,2.06.25l3.88-2.69c.68-.51.74-1.07.11-1.7Z"/><path class="cls-1" d="M234.58,534.72l-2.24,1.5c-2.66,1.81-5.35,1.67-7.98-.96l-1.25-1.25c-1.19-1.19-1.75-2.43-1.64-3.56l-1.73,1.16c-.62.45-.65.99-.14,1.5l.79.79c.45.45.85.45,1.25.17l5.01,5.01c-3.4,2.32-6.68,2.04-9.82-1.1l-3.71-3.71c-2.8-2.8-2.63-6.37.96-8.83l10.64-7.3,5.63,5.63-1.41.96c1.58-.11,3.17.51,4.7,2.04l1.27,1.27c2.21,2.21,2.32,4.87-.34,6.68ZM228.55,528.07l-.51-.51c-.62-.62-1.33-.71-2.01-.25l-1.02.74c-.68.45-.71,1.1-.11,1.7l.51.51c.74.74,1.39.71,2.04.23l1.02-.68c.68-.45.68-1.13.08-1.73Z"/><path class="cls-1" d="M206.58,527.48l-5.74-5.74,1.5-1.05c-1.75.06-3.37-.59-4.92-2.15l-1.5-1.5c-2.55-2.55-2.32-5.6,1.27-8.06l5.49-3.79c3.59-2.46,6.85-2.49,9.79.45l1.5,1.5c1.3,1.3,1.84,2.69,1.58,4.13l7.38-5.12,5.97,5.97-22.32,15.36ZM210.79,512.86l-.85-.85c-.68-.68-1.33-.71-2.04-.23l-3.9,2.66c-.65.48-.71,1.1-.08,1.73l.85.85c.74.74,1.3.74,1.98.23l3.93-2.69c.76-.48.71-1.1.11-1.7Z"/><path class="cls-1" d="M200.18,501.85l-5.94,4.07,1.78,1.78-5.46,3.76-1.81-1.81-5.09,3.51-5.94-5.94,5.09-3.51-1.9-1.89,5.46-3.76,1.9,1.9,4.64-3.17c.62-.45.71-.88.14-1.44l-.93-.93,5.26-3.62,3.25,3.25c2.91,2.91,2.86,5.52-.45,7.81Z"/><path class="cls-1" d="M190.17,492.91l-5.23,3.59c-3.45,2.38-7.55,2.01-10.98-1.41l-3.03-3.03c-3.11-3.11-3.08-6.82.37-9.19l3.14-2.18,7.86,7.86,1.81-1.25c.68-.45.65-1.16.06-1.75l-.34-.34c-.65-.65-1.33-.65-2.04-.23l-.45.28-5.52-5.52.71-.48c3.48-2.35,7.67-1.9,10.98,1.42l3.03,3.03c3.14,3.14,3.08,6.82-.37,9.19ZM177.61,487.88l-1.1.76c-.65.42-.71,1.05-.08,1.67l.34.34c.74.74,1.42.74,2.04.28l1.13-.74-2.32-2.32Z"/><path class="cls-1" d="M164.1,485l-5.57-5.57,1.44-.99c-1.84.03-3.54-.59-5.32-2.09l6.54-4.5c1.81,2.15,3.73,2.43,6.2.88l7.07-4.87,5.97,5.97-16.32,11.17Z"/><path class="cls-1" d="M169.83,467.54c-1.78,1.78-4.87,1.98-7.1-.25-1.61-1.61-1.7-3.62-.17-5.15,1.75-1.75,4.87-2.09,7.02.06,1.67,1.67,1.81,3.79.25,5.35Z"/><path class="cls-1" d="M153.48,465.27l1.49,1.51-5.49,3.71-1.49-1.51-2.28,1.56c-3.36,2.23-6.07,2.15-9.32-1.16l-3.25-3.31,5.32-3.54.92.94c.59.6,1.07.58,1.72.16l.97-.67-8.46-8.62,16.39-11.05,5.86,5.96-10.87,7.31,2.63,2.68,10.87-7.31,5.89,5.99-10.9,7.34Z"/><path class="cls-1" d="M141.84,440.92l-2.61.66c-3.11.82-5.6-.22-7.19-3.58l-.76-1.59c-.72-1.52-.84-2.88-.35-3.91l-2.01.52c-.74.22-.94.71-.64,1.36l.48,1.01c.28.58.65.71,1.12.58l3.04,6.39c-3.97,1.05-6.97-.32-8.88-4.33l-2.25-4.73c-1.7-3.58-.35-6.88,3.86-7.99l12.46-3.32,3.42,7.19-1.65.43c1.53.42,2.81,1.54,3.74,3.49l.77,1.62c1.34,2.82.56,5.36-2.55,6.18ZM138.39,432.64l-.31-.65c-.38-.79-1.02-1.11-1.81-.91l-1.21.35c-.79.2-1.04.8-.67,1.56l.31.65c.45.94,1.07,1.13,1.84.89l1.19-.3c.79-.2,1.02-.84.66-1.6Z"/><path class="cls-1" d="M131.47,423.63h-6.67c-4.35.02-7.05-1.84-7.8-5.93l-.38-2.09c-.33-1.81.01-3.26,1.05-4.26h-10.37s-1.52-8.32-1.52-8.32l28.48.03,1.43,7.79-2.12-.02c1.67.91,2.74,2.51,3.15,4.79l.38,2.09c.66,3.58-1.27,5.93-5.63,5.91ZM130.02,413.93l-.22-1.18c-.16-.87-.66-1.38-1.35-1.38h-4.92c-.82,0-1.22.47-1.05,1.38l.21,1.14c.18.98.74,1.37,1.55,1.38h4.72c.85-.04,1.22-.48,1.06-1.34Z"/><path class="cls-1" d="M129.28,403.48l-2.59-.71c-3.11-.83-4.75-2.96-4.48-6.67l.13-1.75c.12-1.68.7-2.92,1.63-3.57l-2-.55c-.75-.18-1.17.15-1.23.87l-.08,1.12c-.05.64.21.94.68,1.05l-.52,7.06c-3.97-1.06-5.9-3.72-5.57-8.15l.39-5.23c.29-3.95,3.1-6.15,7.31-5.03l12.47,3.29-.59,7.94-1.65-.44c1.12,1.12,1.68,2.73,1.52,4.88l-.13,1.79c-.23,3.11-2.17,4.93-5.28,4.1ZM130.38,394.58l.05-.72c.06-.88-.33-1.47-1.12-1.69l-1.22-.29c-.79-.22-1.3.19-1.36,1.02l-.05.72c-.08,1.04.37,1.51,1.16,1.69l1.18.33c.79.22,1.3-.22,1.36-1.06Z"/><path class="cls-1" d="M117.4,376.67l2.65-7.68,1.6.89c-.82-1.55-.94-3.29-.22-5.37l.69-2c1.17-3.4,4.02-4.54,7.8-2.38l5.81,3.27c3.79,2.15,5.23,5.06,3.88,9l-.69,2c-.6,1.74-1.61,2.83-3.02,3.23l7.83,4.4-2.75,7.98-23.58-13.34ZM132.39,374.06l.39-1.13c.31-.91.05-1.5-.69-1.93l-4.1-2.35c-.72-.37-1.3-.15-1.59.68l-.39,1.13c-.34.98-.09,1.49.66,1.88l4.14,2.36c.77.48,1.3.15,1.58-.64Z"/><path class="cls-1" d="M137.66,362.08l-5.31-4.86-1.33,2.14-4.9-4.46,1.35-2.17-4.57-4.16,4.44-7.13,4.57,4.16,1.42-2.28,4.9,4.46-1.42,2.28,4.14,3.8c.58.5,1.01.49,1.44-.19l.7-1.12,4.72,4.3-2.43,3.91c-2.18,3.5-4.72,4.03-7.71,1.33Z"/><path class="cls-1" d="M142.89,351.67l-3.72-5.14c-2.46-3.39-2.2-7.5,1.13-11.01l2.95-3.1c3.03-3.19,6.74-3.25,9.2.13l2.26,3.08-7.66,8.06,1.29,1.78c.47.67,1.18.62,1.75.01l.33-.35c.63-.67.62-1.35.17-2.04l-.29-.45,5.37-5.65.5.69c2.44,3.42,2.09,7.61-1.14,11.01l-2.95,3.1c-3.06,3.22-6.74,3.25-9.2-.13ZM147.6,338.99l-.79-1.08c-.44-.64-1.06-.68-1.67-.04l-.33.35c-.72.75-.7,1.43-.23,2.04l.76,1.11,2.26-2.38Z"/><path class="cls-1" d="M150.45,325.56l5.57-5.57.99,1.44c-.03-1.84.59-3.54,2.09-5.32l4.5,6.54c-2.15,1.81-2.43,3.73-.88,6.2l4.87,7.07-5.97,5.97-11.17-16.32Z"/><path class="cls-1" d="M167.91,331.3c-1.78-1.78-1.98-4.87.25-7.1,1.61-1.61,3.62-1.7,5.15-.17,1.75,1.75,2.09,4.87-.06,7.02-1.67,1.67-3.79,1.81-5.35.25Z"/><path class="cls-1" d="M170.26,314.97l-1.5,1.5-3.76-5.46,1.5-1.5-1.58-2.26c-2.26-3.34-2.21-6.05,1.08-9.34l3.28-3.28,3.59,5.29-.93.93c-.59.59-.57,1.08-.14,1.73l.68.96,8.54-8.54,11.2,16.29-5.91,5.91-7.41-10.81-2.66,2.66,7.41,10.81-5.94,5.94-7.44-10.83Z"/><path class="cls-1" d="M196.59,300.19l-1.5-2.23c-1.81-2.66-1.67-5.35.96-7.98l1.25-1.24c1.19-1.19,2.43-1.75,3.56-1.64l-1.16-1.73c-.45-.62-.99-.65-1.5-.14l-.79.79c-.45.45-.45.85-.17,1.24l-5.01,5.01c-2.32-3.39-2.04-6.68,1.1-9.82l3.71-3.71c2.8-2.8,6.37-2.63,8.83.96l7.3,10.64-5.63,5.63-.96-1.41c.11,1.58-.51,3.17-2.04,4.7l-1.27,1.27c-2.21,2.21-4.87,2.32-6.68-.34ZM203.24,294.16l.51-.51c.62-.62.71-1.33.25-2.01l-.74-1.02c-.45-.68-1.1-.71-1.7-.11l-.51.51c-.74.74-.71,1.39-.23,2.04l.68,1.02c.45.68,1.13.68,1.73.08Z"/><path class="cls-1" d="M211.21,283.19l-3.79-5.49c-2.49-3.56-2.49-6.85.45-9.79l1.5-1.5c1.3-1.3,2.69-1.84,4.1-1.56l-5.88-8.54,5.97-5.97,16.15,23.45-5.6,5.6-1.19-1.75c.2,1.9-.51,3.68-2.15,5.32l-1.5,1.5c-2.57,2.57-5.6,2.32-8.06-1.27ZM218.37,276.48l.85-.85c.62-.62.76-1.33.37-1.9l-2.8-4.05c-.45-.68-1.07-.74-1.73-.08l-.82.82c-.71.71-.71,1.39-.25,2.07l2.69,3.88c.51.68,1.07.74,1.7.11Z"/><path class="cls-1" d="M228.59,268.19l-1.5-2.23c-1.81-2.66-1.67-5.35.96-7.98l1.25-1.24c1.19-1.19,2.43-1.75,3.56-1.64l-1.16-1.73c-.45-.62-.99-.65-1.5-.14l-.79.79c-.45.45-.45.85-.17,1.24l-5.01,5.01c-2.32-3.39-2.04-6.68,1.1-9.82l3.71-3.71c2.8-2.8,6.37-2.63,8.83.96l7.3,10.64-5.63,5.63-.96-1.41c.11,1.58-.51,3.17-2.04,4.7l-1.27,1.27c-2.21,2.21-4.87,2.32-6.68-.34ZM235.24,262.16l.51-.51c.62-.62.71-1.33.25-2.01l-.74-1.02c-.45-.68-1.1-.71-1.7-.11l-.51.51c-.74.74-.71,1.39-.23,2.04l.68,1.02c.45.68,1.13.68,1.73.08Z"/><path class="cls-1" d="M235.82,240.19l5.74-5.74,1.05,1.5c-.06-1.75.59-3.37,2.15-4.92l1.5-1.5c2.55-2.55,5.6-2.32,8.06,1.27l3.79,5.49c2.46,3.59,2.49,6.85-.45,9.79l-1.5,1.5c-1.3,1.3-2.69,1.84-4.13,1.58l5.12,7.38-5.97,5.97-15.36-22.32ZM250.45,244.4l.85-.85c.68-.68.71-1.33.23-2.04l-2.66-3.9c-.48-.65-1.1-.71-1.73-.08l-.85.85c-.74.74-.74,1.3-.23,1.98l2.69,3.93c.48.76,1.1.71,1.7.11Z"/><path class="cls-1" d="M261.44,233.81l-4.07-5.94-1.78,1.78-3.76-5.46,1.81-1.81-3.51-5.09,5.94-5.94,3.51,5.09,1.9-1.9,3.76,5.46-1.9,1.9,3.17,4.64c.45.62.88.71,1.44.14l.93-.93,3.62,5.26-3.25,3.25c-2.91,2.91-5.52,2.86-7.81-.45Z"/><path class="cls-1" d="M270.4,223.78l-3.59-5.23c-2.38-3.45-2.01-7.55,1.41-10.98l3.03-3.03c3.11-3.11,6.82-3.08,9.19.37l2.18,3.14-7.86,7.86,1.25,1.81c.45.68,1.16.65,1.75.06l.34-.34c.65-.65.65-1.33.23-2.04l-.28-.45,5.52-5.52.48.71c2.35,3.48,1.9,7.67-1.42,10.98l-3.03,3.03c-3.14,3.14-6.82,3.08-9.19-.37ZM275.43,211.22l-.76-1.1c-.42-.65-1.05-.71-1.67-.08l-.34.34c-.74.74-.74,1.41-.28,2.04l.74,1.13,2.32-2.32Z"/><path class="cls-1" d="M278.3,197.71l5.57-5.57.99,1.44c-.03-1.84.59-3.54,2.09-5.32l4.5,6.54c-2.15,1.81-2.43,3.73-.88,6.2l4.87,7.07-5.97,5.97-11.17-16.32Z"/><path class="cls-1" d="M295.76,203.45c-1.78-1.78-1.98-4.87.25-7.1,1.61-1.61,3.62-1.7,5.15-.17,1.75,1.75,2.09,4.87-.06,7.02-1.67,1.67-3.79,1.81-5.35.25Z"/><path class="cls-1" d="M298.1,187.13l-1.5,1.5-3.76-5.46,1.5-1.5-1.58-2.26c-2.26-3.34-2.21-6.05,1.08-9.34l3.28-3.28,3.59,5.29-.93.93c-.59.59-.57,1.08-.14,1.73l.68.96,8.54-8.54,11.2,16.29-5.91,5.91-7.41-10.81-2.66,2.66,7.41,10.81-5.94,5.94-7.44-10.83Z"/><path class="cls-1" d="M324.43,172.34l-1.5-2.24c-1.81-2.66-1.67-5.35.96-7.98l1.25-1.24c1.19-1.19,2.43-1.75,3.56-1.64l-1.16-1.73c-.45-.62-.99-.65-1.5-.14l-.79.79c-.45.45-.45.85-.17,1.24l-5.01,5.01c-2.32-3.39-2.04-6.68,1.1-9.82l3.71-3.71c2.8-2.8,6.37-2.63,8.83.96l7.3,10.64-5.63,5.63-.96-1.41c.11,1.58-.51,3.17-2.04,4.7l-1.27,1.27c-2.21,2.21-4.87,2.32-6.68-.34ZM331.08,166.32l.51-.51c.62-.62.71-1.33.25-2.01l-.74-1.02c-.45-.68-1.1-.71-1.7-.11l-.51.51c-.74.74-.71,1.39-.23,2.04l.68,1.02c.45.68,1.13.68,1.73.08Z"/><path class="cls-1" d="M338.56,155.3l-3.58-5.63c-2.35-3.66-2.22-6.93.83-9.76l1.55-1.44c1.35-1.25,2.75-1.73,4.16-1.4l-5.55-8.76,6.19-5.73,15.24,24.05-5.81,5.38-1.12-1.8c.12,1.9-.65,3.65-2.35,5.23l-1.55,1.44c-2.67,2.47-5.68,2.1-8.01-1.58ZM345.96,148.88l.88-.82c.65-.6.81-1.3.44-1.88l-2.64-4.15c-.43-.7-1.05-.78-1.72-.15l-.85.79c-.73.68-.76,1.36-.33,2.05l2.54,3.97c.48.7,1.04.78,1.69.18Z"/><path class="cls-1" d="M354.32,142.59l-.8-2.57c-.97-3.07-.07-5.6,3.21-7.37l1.55-.84c1.48-.8,2.83-.98,3.88-.55l-.62-1.99c-.25-.73-.76-.91-1.4-.56l-.99.53c-.56.3-.68.68-.52,1.14l-6.23,3.36c-1.25-3.92-.04-6.98,3.87-9.09l4.61-2.49c3.49-1.88,6.85-.7,8.18,3.45l3.95,12.28-7,3.78-.52-1.63c-.35,1.55-1.4,2.89-3.3,3.92l-1.58.85c-2.75,1.48-5.33.83-6.3-2.24ZM362.42,138.72l.63-.34c.77-.42,1.06-1.07.82-1.85l-.41-1.19c-.24-.78-.85-.99-1.59-.59l-.63.34c-.92.49-1.07,1.12-.8,1.89l.36,1.17c.24.78.89.97,1.63.58Z"/><path class="cls-1" d="M370.56,118.15l7.9-1.88.11,1.83c.87-1.52,2.27-2.56,4.41-3.06l2.06-.49c3.5-.83,5.98.96,6.2,5.31l.35,6.66c.21,4.35-1.47,7.13-5.51,8.1l-2.06.49c-1.79.43-3.25.16-4.35-.82l.49,8.97-8.21,1.95-1.38-27.05ZM380.81,129.41l1.17-.28c.93-.22,1.3-.76,1.26-1.62l-.22-4.72c-.07-.81-.57-1.18-1.42-.98l-1.17.28c-1.01.24-1.31.72-1.23,1.57l.23,4.76c0,.9.57,1.18,1.39.99Z"/><path class="cls-1" d="M393.77,127.41l1.23-7.1-2.52.03,1.11-6.54,2.56-.03,1.04-6.09,8.4-.11-1.04,6.09,2.68-.04-1.11,6.54-2.68.04-.97,5.53c-.11.76.14,1.12.94,1.11l1.32-.02-1.08,6.29-4.6.06c-4.12.06-5.94-1.8-5.28-5.77Z"/><path class="cls-1" d="M405.31,126.09l2.36-5.89c1.55-3.89,5.17-5.86,9.92-4.92l4.2.84c4.32.86,6.35,3.96,4.8,7.85l-1.4,3.55-10.91-2.18-.81,2.04c-.31.75.1,1.33.93,1.49l.47.09c.9.18,1.47-.2,1.82-.94l.22-.49,7.65,1.53-.32.79c-1.59,3.88-5.32,5.83-9.91,4.92l-4.2-.84c-4.35-.87-6.35-3.96-4.8-7.85ZM418.56,123.31l.49-1.25c.31-.71,0-1.26-.86-1.44l-.47-.09c-1.02-.2-1.58.17-1.85.9l-.53,1.24,3.22.64Z"/><path class="cls-1" d="M431.92,119.4l7.23,3.13-.98,1.45c1.7-.7,3.51-.75,5.71-.01l-4.42,6.59c-2.47-1.33-4.37-.89-6.08,1.47l-4.78,7.13-7.75-3.35,11.06-16.4Z"/><path class="cls-1" d="M431.8,137.03c1.25-2.19,4.17-3.2,6.92-1.63,1.98,1.13,2.59,3.04,1.52,4.92-1.23,2.16-4.14,3.31-6.78,1.8-2.05-1.17-2.75-3.18-1.66-5.09Z"/><path class="cls-1" d="M447.83,134.62l-1.61-1.37,5.14-4.19,1.61,1.38,2.13-1.76c3.15-2.52,5.86-2.68,9.39.33l3.53,3.01-4.99,4-1-.86c-.64-.54-1.12-.48-1.73,0l-.9.75,9.2,7.83-15.35,12.47-6.37-5.42,10.18-8.25-2.86-2.44-10.18,8.25-6.4-5.45,10.21-8.28Z"/><path class="cls-1" d="M463.12,160.08l2.24-1.5c2.66-1.81,5.35-1.67,7.98.96l1.25,1.24c1.19,1.19,1.75,2.43,1.64,3.56l1.73-1.16c.62-.45.65-.99.14-1.5l-.79-.79c-.45-.45-.85-.45-1.25-.17l-5.01-5.01c3.4-2.32,6.68-2.04,9.82,1.1l3.71,3.71c2.8,2.8,2.63,6.37-.96,8.83l-10.64,7.3-5.63-5.63,1.41-.96c-1.58.11-3.17-.51-4.7-2.04l-1.27-1.27c-2.21-2.21-2.32-4.87.34-6.68ZM469.15,166.73l.51.51c.62.62,1.33.71,2.01.25l1.02-.74c.68-.45.71-1.1.11-1.7l-.51-.51c-.74-.74-1.39-.71-2.04-.23l-1.02.68c-.68.45-.68,1.13-.08,1.73Z"/><path class="cls-1" d="M480.12,174.7l5.49-3.79c3.57-2.49,6.85-2.49,9.79.45l1.5,1.5c1.3,1.3,1.84,2.69,1.56,4.1l8.54-5.88,5.97,5.97-23.45,16.15-5.6-5.6,1.75-1.19c-1.89.2-3.68-.51-5.32-2.15l-1.5-1.5c-2.57-2.57-2.32-5.6,1.27-8.06ZM486.82,181.85l.85.85c.62.62,1.33.76,1.9.37l4.05-2.8c.68-.45.74-1.08.08-1.73l-.82-.82c-.71-.71-1.39-.71-2.06-.25l-3.88,2.69c-.68.51-.74,1.08-.11,1.7Z"/><path class="cls-1" d="M495.12,192.07l2.24-1.5c2.66-1.81,5.35-1.67,7.98.96l1.25,1.25c1.19,1.19,1.75,2.43,1.64,3.56l1.73-1.16c.62-.45.65-.99.14-1.5l-.79-.79c-.45-.45-.85-.45-1.25-.17l-5.01-5.01c3.4-2.32,6.68-2.04,9.82,1.1l3.71,3.71c2.8,2.8,2.63,6.37-.96,8.83l-10.64,7.3-5.63-5.63,1.41-.96c-1.58.11-3.17-.51-4.7-2.04l-1.27-1.27c-2.21-2.21-2.32-4.87.34-6.68ZM501.14,198.72l.51.51c.62.62,1.33.71,2.01.25l1.02-.74c.68-.45.71-1.1.11-1.7l-.51-.51c-.74-.74-1.39-.71-2.04-.23l-1.02.68c-.68.45-.68,1.13-.08,1.73Z"/><path class="cls-1" d="M523.12,199.31l5.74,5.74-1.5,1.05c1.75-.06,3.37.59,4.92,2.15l1.5,1.5c2.55,2.55,2.32,5.6-1.27,8.06l-5.49,3.79c-3.59,2.46-6.85,2.49-9.79-.45l-1.5-1.5c-1.3-1.3-1.84-2.69-1.58-4.13l-7.38,5.12-5.97-5.97,22.32-15.36ZM518.91,213.94l.85.85c.68.68,1.33.71,2.04.23l3.9-2.66c.65-.48.71-1.1.08-1.73l-.85-.85c-.74-.74-1.3-.74-1.98-.23l-3.93,2.69c-.76.48-.71,1.1-.11,1.7Z"/><path class="cls-1" d="M529.52,224.95l5.94-4.07-1.78-1.78,5.46-3.76,1.81,1.81,5.09-3.51,5.94,5.94-5.09,3.51,1.9,1.9-5.46,3.76-1.9-1.9-4.64,3.17c-.62.45-.71.88-.14,1.44l.93.93-5.26,3.62-3.25-3.25c-2.91-2.91-2.86-5.52.45-7.81Z"/><path class="cls-1" d="M539.53,233.88l5.23-3.59c3.45-2.38,7.55-2.01,10.98,1.41l3.03,3.03c3.11,3.11,3.08,6.82-.37,9.19l-3.14,2.18-7.86-7.86-1.81,1.24c-.68.45-.65,1.16-.06,1.75l.34.34c.65.65,1.33.65,2.04.23l.45-.28,5.52,5.52-.71.48c-3.48,2.35-7.67,1.9-10.98-1.41l-3.03-3.03c-3.14-3.14-3.08-6.82.37-9.19ZM552.09,238.92l1.1-.76c.65-.42.71-1.05.08-1.67l-.34-.34c-.74-.74-1.42-.74-2.04-.28l-1.13.74,2.32,2.32Z"/><path class="cls-1" d="M565.61,241.8l5.57,5.57-1.44.99c1.84-.03,3.54.59,5.32,2.09l-6.54,4.5c-1.81-2.15-3.73-2.43-6.2-.88l-7.07,4.87-5.97-5.97,16.32-11.17Z"/><path class="cls-1" d="M559.86,259.25c1.78-1.78,4.87-1.98,7.1.25,1.61,1.61,1.7,3.62.17,5.15-1.75,1.75-4.87,2.09-7.02-.06-1.67-1.67-1.81-3.79-.25-5.35Z"/><path class="cls-1" d="M576.17,261.59l-1.5-1.5,5.46-3.76,1.5,1.5,2.26-1.58c3.34-2.26,6.05-2.21,9.33,1.08l3.28,3.28-5.29,3.59-.93-.93c-.59-.59-1.07-.57-1.73-.14l-.96.68,8.54,8.54-16.29,11.2-5.91-5.91,10.81-7.41-2.66-2.66-10.81,7.41-5.94-5.94,10.83-7.44Z"/><path class="cls-1" d="M590.98,287.94l2.24-1.5c2.66-1.81,5.35-1.67,7.98.96l1.25,1.24c1.19,1.19,1.75,2.43,1.64,3.56l1.73-1.16c.62-.45.65-.99.14-1.5l-.79-.79c-.45-.45-.85-.45-1.25-.17l-5.01-5.01c3.4-2.32,6.68-2.04,9.82,1.1l3.71,3.71c2.8,2.8,2.63,6.37-.96,8.83l-10.64,7.3-5.63-5.63,1.41-.96c-1.58.11-3.17-.51-4.7-2.04l-1.27-1.27c-2.21-2.21-2.32-4.87.34-6.68ZM597,294.58l.51.51c.62.62,1.33.71,2.01.25l1.02-.74c.68-.45.71-1.1.11-1.7l-.51-.51c-.74-.74-1.39-.71-2.04-.23l-1.02.68c-.68.45-.68,1.13-.08,1.73Z"/><path class="cls-1" d="M607.99,302.57l5.49-3.79c3.57-2.49,6.85-2.49,9.79.45l1.5,1.5c1.3,1.3,1.84,2.69,1.56,4.1l8.54-5.88,5.97,5.97-23.45,16.15-5.6-5.6,1.75-1.19c-1.9.2-3.68-.51-5.32-2.15l-1.5-1.5c-2.57-2.57-2.32-5.6,1.27-8.06ZM614.69,309.73l.85.85c.62.62,1.33.76,1.9.37l4.05-2.8c.68-.45.74-1.08.08-1.73l-.82-.82c-.71-.71-1.39-.71-2.06-.25l-3.88,2.69c-.68.51-.74,1.08-.11,1.7Z"/><path class="cls-1" d="M622.97,319.94l2.24-1.5c2.66-1.81,5.35-1.67,7.98.96l1.25,1.25c1.19,1.19,1.75,2.43,1.64,3.56l1.73-1.16c.62-.45.65-.99.14-1.5l-.79-.79c-.45-.45-.85-.45-1.25-.17l-5.01-5.01c3.4-2.32,6.68-2.04,9.82,1.1l3.71,3.71c2.8,2.8,2.63,6.37-.96,8.83l-10.64,7.3-5.63-5.63,1.41-.96c-1.58.11-3.17-.51-4.7-2.04l-1.27-1.27c-2.21-2.21-2.32-4.87.34-6.68ZM629,326.58l.51.51c.62.62,1.33.71,2.01.25l1.02-.74c.68-.45.71-1.1.11-1.7l-.51-.51c-.74-.74-1.39-.71-2.04-.23l-1.02.68c-.68.45-.68,1.13-.08,1.73Z"/><path class="cls-1" d="M650.97,327.16l5.74,5.74-1.5,1.05c1.75-.06,3.37.59,4.92,2.15l1.5,1.5c2.55,2.55,2.32,5.6-1.27,8.06l-5.49,3.79c-3.59,2.46-6.85,2.49-9.79-.45l-1.5-1.5c-1.3-1.3-1.84-2.69-1.58-4.13l-7.38,5.12-5.97-5.97,22.32-15.36ZM646.75,341.79l.85.85c.68.68,1.33.71,2.04.23l3.9-2.66c.65-.48.71-1.1.08-1.73l-.85-.85c-.74-.74-1.3-.74-1.98-.23l-3.93,2.69c-.76.48-.71,1.1-.11,1.7Z"/><path class="cls-1" d="M655.53,351.75l6.64-2.79-1.39-2.1,6.1-2.58,1.41,2.14,5.69-2.41,4.62,7.01-5.69,2.41,1.47,2.24-6.1,2.58-1.47-2.24-5.18,2.17c-.7.32-.87.72-.43,1.38l.73,1.1-5.88,2.49-2.53-3.84c-2.27-3.44-1.69-5.98,2.02-7.55Z"/><path class="cls-1" d="M662.86,360.77l6.24-1.16c4.12-.77,7.72,1.23,9.46,5.74l1.54,3.99c1.58,4.11.05,7.48-4.06,8.25l-3.75.72-4-10.38-2.16.4c-.8.14-1.06.8-.76,1.58l.17.45c.33.86.95,1.13,1.77,1.03l.53-.08,2.81,7.28-.84.15c-4.13.74-7.78-1.38-9.46-5.74l-1.54-3.99c-1.6-4.14-.05-7.48,4.06-8.25ZM672.3,370.46l1.32-.25c.77-.12,1.07-.67.75-1.49l-.17-.45c-.37-.97-1-1.25-1.75-1.08l-1.33.21,1.18,3.06Z"/><path class="cls-1" d="M682.74,379.62l1.25,7.78-1.75-.04c1.5,1.06,2.51,2.55,3.08,4.81l-7.93-.19c-.21-2.8-1.6-4.16-4.5-4.34l-8.58-.21-1.33-8.33,19.77.52Z"/><path class="cls-1" d="M667.81,389.01c2.52-.13,4.94,1.79,5.1,4.94.12,2.28-1.17,3.83-3.32,3.94-2.48.13-5.01-1.7-5.17-4.74-.12-2.36,1.19-4.03,3.39-4.14Z"/><path class="cls-1" d="M678.48,401.21l.29-2.1,6.3,2.07-.29,2.1,2.63.84c3.82,1.29,5.42,3.48,4.79,8.08l-.63,4.6-6.06-2.04.18-1.31c.11-.83-.2-1.2-.93-1.46l-1.12-.35-1.63,11.97-18.77-6.19,1.13-8.28,12.44,4.12.51-3.72-12.44-4.12,1.13-8.32,12.47,4.12Z"/><path class="cls-1" d="M666,424.99l2.08,1.71c2.5,2.02,3.14,4.64,1.38,7.91l-.83,1.55c-.79,1.48-1.82,2.38-2.94,2.6l1.61,1.32c.61.46,1.14.34,1.48-.3l.53-.99c.3-.56.19-.94-.2-1.24l3.35-6.24c3.2,2.58,3.88,5.8,1.78,9.71l-2.48,4.62c-1.87,3.49-5.33,4.36-8.73,1.63l-10.06-8.07,3.76-7.01,1.33,1.08c-.57-1.48-.43-3.18.59-5.08l.85-1.59c1.47-2.75,3.99-3.63,6.49-1.6ZM661.38,432.68l-.34.63c-.42.78-.29,1.48.34,2l1,.76c.63.52,1.26.36,1.66-.38l.34-.63c.49-.92.28-1.53-.37-2.01l-.94-.78c-.63-.52-1.28-.32-1.68.42Z"/><path class="cls-1" d="M658.2,443.6l3.96,5.37c2.6,3.48,2.7,6.76-.15,9.8l-1.45,1.55c-1.26,1.34-2.63,1.92-4.05,1.68l6.15,8.35-5.78,6.15-16.88-22.93,5.42-5.77,1.24,1.72c-.26-1.89.39-3.69,1.98-5.38l1.45-1.55c2.49-2.65,5.53-2.49,8.1,1.02ZM651.26,450.52l-.82.88c-.6.64-.72,1.35-.31,1.91l2.93,3.96c.47.66,1.1.7,1.73.03l.79-.85c.69-.73.66-1.41.19-2.07l-2.81-3.79c-.53-.66-1.1-.7-1.7-.06Z"/><path class="cls-1" d="M641.33,458.64l1.5,2.24c1.81,2.66,1.67,5.35-.96,7.98l-1.25,1.25c-1.19,1.19-2.43,1.75-3.56,1.64l1.16,1.73c.45.62.99.65,1.5.14l.79-.79c.45-.45.45-.85.17-1.25l5.01-5.01c2.32,3.4,2.04,6.68-1.1,9.82l-3.71,3.71c-2.8,2.8-6.37,2.63-8.83-.96l-7.3-10.64,5.63-5.63.96,1.41c-.11-1.58.51-3.17,2.04-4.7l1.27-1.27c2.21-2.21,4.87-2.32,6.68.34ZM634.68,464.67l-.51.51c-.62.62-.71,1.33-.25,2.01l.74,1.02c.45.68,1.1.71,1.7.11l.51-.51c.74-.74.71-1.39.23-2.04l-.68-1.02c-.45-.68-1.13-.68-1.73-.08Z"/><path class="cls-1" d="M634.09,486.64l-5.74,5.74-1.05-1.5c.06,1.75-.59,3.37-2.15,4.92l-1.5,1.5c-2.55,2.55-5.6,2.32-8.06-1.27l-3.79-5.49c-2.46-3.59-2.49-6.85.45-9.79l1.5-1.5c1.3-1.3,2.69-1.84,4.13-1.58l-5.12-7.38,5.97-5.97,15.36,22.32ZM619.47,482.43l-.85.85c-.68.68-.71,1.33-.23,2.04l2.66,3.9c.48.65,1.1.71,1.73.08l.85-.85c.74-.74.74-1.3.23-1.98l-2.69-3.93c-.48-.76-1.1-.71-1.7-.11Z"/><path class="cls-1" d="M608.47,493.03l4.07,5.94,1.78-1.78,3.76,5.46-1.81,1.81,3.51,5.09-5.94,5.94-3.51-5.09-1.89,1.9-3.76-5.46,1.9-1.9-3.17-4.64c-.45-.62-.88-.71-1.44-.14l-.93.93-3.62-5.26,3.25-3.25c2.91-2.91,5.52-2.86,7.81.45Z"/><path class="cls-1" d="M599.52,503.05l3.59,5.23c2.38,3.45,2.01,7.55-1.41,10.98l-3.03,3.03c-3.11,3.11-6.82,3.08-9.19-.37l-2.18-3.14,7.86-7.86-1.25-1.81c-.45-.68-1.16-.65-1.75-.06l-.34.34c-.65.65-.65,1.33-.23,2.04l.28.45-5.52,5.52-.48-.71c-2.35-3.48-1.9-7.67,1.42-10.98l3.03-3.03c3.14-3.14,6.82-3.08,9.19.37ZM594.48,515.62l.76,1.1c.42.65,1.05.71,1.67.08l.34-.34c.74-.74.74-1.42.28-2.04l-.74-1.13-2.32,2.32Z"/><path class="cls-1" d="M591.61,529.12l-5.57,5.57-.99-1.44c.03,1.84-.59,3.54-2.09,5.32l-4.5-6.54c2.15-1.81,2.43-3.73.88-6.2l-4.87-7.07,5.97-5.97,11.17,16.32Z"/><path class="cls-1" d="M574.15,523.38c1.78,1.78,1.98,4.87-.25,7.1-1.61,1.61-3.62,1.7-5.15.17-1.75-1.75-2.09-4.87.06-7.02,1.67-1.67,3.79-1.81,5.35-.25Z"/><path class="cls-1" d="M571.8,539.71l1.5-1.5,3.76,5.46-1.5,1.5,1.58,2.26c2.26,3.34,2.21,6.05-1.08,9.33l-3.28,3.28-3.59-5.29.93-.93c.59-.59.57-1.07.14-1.73l-.68-.96-8.54,8.54-11.2-16.29,5.91-5.91,7.41,10.81,2.66-2.66-7.41-10.81,5.94-5.94,7.44,10.83Z"/><path class="cls-1" d="M545.46,554.51l1.5,2.24c1.81,2.66,1.67,5.35-.96,7.98l-1.25,1.25c-1.19,1.19-2.43,1.75-3.56,1.64l1.16,1.73c.45.62.99.65,1.5.14l.79-.79c.45-.45.45-.85.17-1.25l5.01-5.01c2.32,3.4,2.04,6.68-1.1,9.82l-3.71,3.71c-2.8,2.8-6.37,2.63-8.83-.96l-7.3-10.64,5.63-5.63.96,1.41c-.11-1.58.51-3.17,2.04-4.7l1.27-1.27c2.21-2.21,4.87-2.32,6.68.34ZM538.81,560.53l-.51.51c-.62.62-.71,1.33-.25,2.01l.74,1.02c.45.68,1.1.71,1.7.11l.51-.51c.74-.74.71-1.39.23-2.04l-.68-1.02c-.45-.68-1.13-.68-1.73-.08Z"/><path class="cls-1" d="M530.84,571.5l3.79,5.49c2.49,3.57,2.49,6.85-.45,9.79l-1.5,1.5c-1.3,1.3-2.69,1.84-4.1,1.56l5.88,8.54-5.97,5.97-16.15-23.45,5.6-5.6,1.19,1.75c-.2-1.89.51-3.68,2.15-5.32l1.5-1.5c2.57-2.57,5.6-2.32,8.06,1.27ZM523.69,578.21l-.85.85c-.62.62-.76,1.33-.37,1.9l2.8,4.05c.45.68,1.07.74,1.73.08l.82-.82c.71-.71.71-1.39.25-2.06l-2.69-3.88c-.51-.68-1.07-.74-1.7-.11Z"/><path class="cls-1" d="M513.47,586.49l1.5,2.24c1.81,2.66,1.67,5.35-.96,7.98l-1.25,1.25c-1.19,1.19-2.43,1.75-3.56,1.64l1.16,1.73c.45.62.99.65,1.5.14l.79-.79c.45-.45.45-.85.17-1.25l5.01-5.01c2.32,3.4,2.04,6.68-1.1,9.82l-3.71,3.71c-2.8,2.8-6.37,2.63-8.83-.96l-7.3-10.64,5.63-5.63.96,1.41c-.11-1.58.51-3.17,2.04-4.7l1.27-1.27c2.21-2.21,4.87-2.32,6.68.34ZM506.82,592.52l-.51.51c-.62.62-.71,1.33-.25,2.01l.74,1.02c.45.68,1.1.71,1.7.11l.51-.51c.74-.74.71-1.39.23-2.04l-.68-1.02c-.45-.68-1.13-.68-1.73-.08Z"/><path class="cls-1" d="M506.23,614.5l-5.74,5.74-1.05-1.5c.06,1.75-.59,3.37-2.15,4.92l-1.5,1.5c-2.55,2.55-5.6,2.32-8.06-1.27l-3.79-5.49c-2.46-3.59-2.49-6.85.45-9.79l1.5-1.5c1.3-1.3,2.69-1.84,4.13-1.58l-5.12-7.38,5.97-5.97,15.36,22.32ZM491.6,610.29l-.85.85c-.68.68-.71,1.33-.23,2.04l2.66,3.9c.48.65,1.1.71,1.73.08l.85-.85c.74-.74.74-1.3.23-1.98l-2.69-3.93c-.48-.76-1.1-.71-1.7-.11Z"/><path class="cls-1" d="M480.6,620.89l4.07,5.94,1.78-1.78,3.76,5.46-1.81,1.81,3.51,5.09-5.94,5.94-3.51-5.09-1.89,1.9-3.76-5.46,1.9-1.9-3.17-4.64c-.45-.62-.88-.71-1.44-.14l-.93.93-3.62-5.26,3.25-3.25c2.91-2.91,5.52-2.86,7.81.45Z"/><path class="cls-1" d="M471.66,630.91l3.59,5.23c2.38,3.45,2.01,7.55-1.41,10.98l-3.03,3.03c-3.11,3.11-6.82,3.08-9.19-.37l-2.18-3.14,7.86-7.86-1.25-1.81c-.45-.68-1.16-.65-1.75-.06l-.34.34c-.65.65-.65,1.33-.23,2.04l.28.45-5.52,5.52-.48-.71c-2.35-3.48-1.9-7.67,1.42-10.98l3.03-3.03c3.14-3.14,6.82-3.08,9.19.37ZM466.63,643.47l.76,1.1c.42.65,1.05.71,1.67.08l.34-.34c.74-.74.74-1.42.28-2.04l-.74-1.13-2.32,2.32Z"/><path class="cls-1" d="M463.68,657.2l-5.88,5.24-.91-1.5c-.08,1.84-.8,3.5-2.39,5.19l-4.11-6.78c2.25-1.68,2.64-3.59,1.23-6.13l-4.45-7.34,6.3-5.62,10.21,16.93Z"/><path class="cls-1" d="M447.7,649.7c1.47,2.05,1.16,5.12-1.41,6.96-1.85,1.33-3.85,1.08-5.11-.67-1.44-2.02-1.27-5.14,1.2-6.91,1.92-1.37,4.03-1.17,5.31.62Z"/><path class="cls-1" d="M443.2,665.28l1.92-.89,1.64,6.42-1.92.89.7,2.67c.97,3.91-.02,6.44-4.24,8.38l-4.21,1.94-1.54-6.2,1.2-.55c.76-.35.9-.81.73-1.57l-.3-1.14-10.97,5.06-4.87-19.16,7.59-3.5,3.22,12.7,3.41-1.58-3.22-12.7,7.63-3.52,3.23,12.74Z"/></svg>