<svg width="802" height="982" viewBox="0 0 802 982" fill="none" xmlns="http://www.w3.org/2000/svg">
<g clip-path="url(#clip0_269_5913)">
<rect width="802" height="982" fill="#125AFA"/>
<path fill-rule="evenodd" clip-rule="evenodd" d="M350.167 789.645C363.865 803.397 382.148 810.944 401.549 810.944L401.493 811C420.894 811 439.121 803.453 452.875 789.701L702.74 539.874C710.591 532.024 716.267 522.815 719.769 513H736.362H829C842.255 513 853 502.031 853 488.5C853 474.969 842.255 464 829 464H737.516H719.769C716.267 454.185 710.591 444.976 702.74 437.126L452.875 187.299C439.177 173.547 420.894 166 401.493 166C382.092 166 363.865 173.547 350.111 187.299L100.302 437.126C92.5582 444.837 86.7817 454.001 83.2119 464H63.0779H-27C-40.2548 464 -51 474.969 -51 488.5C-51 502.031 -40.2548 513 -27 513H64.232H83.2183C86.7886 522.982 92.5628 532.136 100.302 539.874L350.167 789.645Z" fill="#F9F9F2"/>
<g clip-path="url(#clip1_269_5913)">
<path d="M401.526 794C383.149 794 365.831 786.85 352.856 773.822L116.178 537.197C103.15 524.169 96 506.904 96 488.526C96 470.149 103.15 452.831 116.178 439.856L352.803 203.178C365.831 190.15 383.096 183 401.474 183C419.851 183 437.169 190.15 450.144 203.178L686.822 439.856C713.673 466.707 713.673 510.346 686.822 537.197L450.144 773.875C437.116 786.903 419.851 794.053 401.474 794.053L401.526 794Z" fill="#125AFA"/>
<path d="M401.526 767.52C390.193 767.52 379.548 763.124 371.551 755.127L134.873 518.449C126.876 510.452 122.48 499.807 122.48 488.473C122.48 477.14 126.876 466.495 134.873 458.498L371.551 221.873C388.075 205.349 414.925 205.349 431.449 221.873L668.127 458.551C684.651 475.075 684.651 501.925 668.127 518.449L431.449 755.127C423.452 763.124 412.807 767.52 401.473 767.52H401.526ZM386.539 236.86L149.86 473.539C145.835 477.564 143.664 482.86 143.664 488.526C143.664 494.193 145.888 499.489 149.86 503.514L386.539 740.193C394.536 748.19 408.517 748.19 416.514 740.193L653.192 503.514C661.454 495.252 661.454 481.801 653.192 473.539L416.461 236.86C408.199 228.599 394.747 228.599 386.486 236.86H386.539Z" fill="#F9F9F2"/>
<path d="M295.606 372.014C295.606 354.485 309.853 340.238 327.382 340.238C344.912 340.238 359.158 354.485 359.158 372.014V456.75C359.158 474.28 344.912 488.526 327.382 488.526C309.853 488.526 295.606 474.28 295.606 456.75V372.014Z" fill="#F9F9F2"/>
<path d="M443.894 372.014C443.894 354.485 458.141 340.238 475.67 340.238C493.2 340.238 507.446 354.485 507.446 372.014V456.75C507.446 474.28 493.2 488.526 475.67 488.526C458.141 488.526 443.894 474.28 443.894 456.75V372.014Z" fill="#F9F9F2"/>
<path d="M505.116 509.71C522.752 509.71 532.073 519.084 527.836 536.349C526.3 542.705 524.235 554.25 521.799 560.34C515.232 576.387 505.646 591.004 493.571 603.291C481.496 615.578 467.144 625.322 451.309 631.995C435.527 638.668 418.58 642.058 401.473 642.058C384.367 642.058 367.42 638.615 351.638 631.995C335.856 625.322 321.504 615.578 309.376 603.291C297.301 591.004 287.715 576.387 281.148 560.34C278.659 554.25 276.647 542.705 275.111 536.349C270.874 519.031 280.248 509.71 297.831 509.71H505.116Z" fill="#F9F9F2"/>
</g>
</g>
<defs>
<clipPath id="clip0_269_5913">
<rect width="802" height="982" fill="white"/>
</clipPath>
<clipPath id="clip1_269_5913">
<rect width="611" height="611" fill="white" transform="translate(96 183)"/>
</clipPath>
</defs>
</svg>
