<svg width="64" height="64" viewBox="0 0 64 64" fill="none" xmlns="http://www.w3.org/2000/svg">
<g id="Layer_1" clip-path="url(#clip0_1141_8737)">
<path id="Vector" d="M32.0028 64C30.0778 64 28.2638 63.2511 26.9047 61.8864L2.11355 37.1008C0.748895 35.7361 0 33.9277 0 32.0028C0 30.0778 0.748895 28.2638 2.11355 26.9047L26.8992 2.11355C28.2638 0.748895 30.0723 0 31.9972 0C33.9222 0 35.7362 0.748895 37.0953 2.11355L61.8864 26.9047C64.699 29.7173 64.699 34.2883 61.8864 37.1008L37.0953 61.892C35.7306 63.2566 33.9222 64.0055 31.9972 64.0055L32.0028 64Z" fill="#125AFA"/>
<g id="Vector_2">
<path d="M32.003 61.2263C30.8159 61.2263 29.7009 60.7659 28.8632 59.9282L4.07201 35.137C3.23436 34.2994 2.77393 33.1844 2.77393 31.9972C2.77393 30.8101 3.23436 29.6951 4.07201 28.8574L28.8632 4.07177C30.594 2.34099 33.4065 2.34099 35.1373 4.07177L59.9285 28.863C61.6592 30.5937 61.6592 33.4063 59.9285 35.137L35.1373 59.9282C34.2996 60.7659 33.1846 61.2263 31.9975 61.2263H32.003ZM30.4331 5.64167L5.64192 30.4329C5.22032 30.8545 4.99287 31.4092 4.99287 32.0028C4.99287 32.5963 5.22586 33.1511 5.64192 33.5727L30.4331 58.3639C31.2708 59.2015 32.7353 59.2015 33.5729 58.3639L58.3641 33.5727C59.2295 32.7073 59.2295 31.2983 58.3641 30.4329L33.5674 5.64167C32.702 4.77628 31.2929 4.77628 30.4276 5.64167H30.4331Z" fill="#F9F9F2"/>
<path d="M20.9083 19.7986C20.9083 17.9624 22.4005 16.4701 24.2367 16.4701C26.0729 16.4701 27.5651 17.9624 27.5651 19.7986V28.6743C27.5651 30.5105 26.0729 32.0028 24.2367 32.0028C22.4005 32.0028 20.9083 30.5105 20.9083 28.6743V19.7986Z" fill="#F9F9F2"/>
<path d="M36.4409 19.7986C36.4409 17.9624 37.9332 16.4701 39.7693 16.4701C41.6055 16.4701 43.0978 17.9624 43.0978 19.7986V28.6743C43.0978 30.5105 41.6055 32.0028 39.7693 32.0028C37.9332 32.0028 36.4409 30.5105 36.4409 28.6743V19.7986Z" fill="#F9F9F2"/>
<path d="M42.8537 34.2217C44.7009 34.2217 45.6773 35.2036 45.2335 37.012C45.0726 37.6777 44.8563 38.8871 44.6011 39.525C43.9132 41.2059 42.9091 42.7369 41.6443 44.0239C40.3795 45.3109 38.8762 46.3316 37.2175 47.0306C35.5644 47.7296 33.7893 48.0846 31.9975 48.0846C30.2057 48.0846 28.4305 47.724 26.7774 47.0306C25.1243 46.3316 23.6209 45.3109 22.3506 44.0239C21.0858 42.7369 20.0817 41.2059 19.3938 39.525C19.1331 38.8871 18.9223 37.6777 18.7614 37.012C18.3177 35.1981 19.2995 34.2217 21.1413 34.2217H42.8537Z" fill="#F9F9F2"/>
</g>
</g>
<defs>
<clipPath id="clip0_1141_8737">
<rect width="64" height="64" fill="white"/>
</clipPath>
</defs>
</svg>
