<svg xmlns="http://www.w3.org/2000/svg" width="24" height="24" viewBox="0 0 24 24" fill="none">
  <g clip-path="url(#clip0_1514_5699)">
    <path d="M12.001 24C11.2792 24 10.5989 23.7192 10.0893 23.2074L0.79258 13.9128C0.280836 13.4011 0 12.7229 0 12.001C0 11.2792 0.280836 10.5989 0.79258 10.0893L10.0872 0.79258C10.5989 0.280836 11.2771 0 11.999 0C12.7208 0 13.4011 0.280836 13.9107 0.79258L23.2074 10.0893C24.2621 11.144 24.2621 12.8581 23.2074 13.9128L13.9107 23.2095C13.399 23.7212 12.7208 24.0021 11.999 24.0021L12.001 24Z" fill="white"/>
    <path d="M12.0009 22.9599C11.5558 22.9599 11.1376 22.7872 10.8235 22.4731L1.52682 13.1764C1.2127 12.8623 1.04004 12.4441 1.04004 11.999C1.04004 11.5538 1.2127 11.1356 1.52682 10.8215L10.8235 1.52691C11.4726 0.87787 12.5273 0.87787 13.1763 1.52691L22.473 10.8236C23.122 11.4727 23.122 12.5273 22.473 13.1764L13.1763 22.4731C12.8622 22.7872 12.444 22.9599 11.9989 22.9599H12.0009ZM11.4122 2.11563L2.11554 11.4123C1.95744 11.5704 1.87214 11.7785 1.87214 12.001C1.87214 12.2236 1.95952 12.4317 2.11554 12.5898L11.4122 21.8864C11.7264 22.2006 12.2755 22.2006 12.5897 21.8864L21.8864 12.5898C22.2109 12.2652 22.2109 11.7368 21.8864 11.4123L12.5876 2.11563C12.2631 1.79111 11.7347 1.79111 11.4102 2.11563H11.4122Z" fill="#125AFA"/>
    <path d="M7.84042 7.42446C7.84042 6.73589 8.40001 6.1763 9.08858 6.1763C9.77714 6.1763 10.3367 6.73589 10.3367 7.42446V10.7529C10.3367 11.4414 9.77714 12.001 9.08858 12.001C8.40001 12.001 7.84042 11.4414 7.84042 10.7529V7.42446Z" fill="#125AFA"/>
    <path d="M13.6652 7.42446C13.6652 6.73589 14.2247 6.1763 14.9133 6.1763C15.6019 6.1763 16.1615 6.73589 16.1615 7.42446V10.7529C16.1615 11.4414 15.6019 12.001 14.9133 12.001C14.2247 12.001 13.6652 11.4414 13.6652 10.7529V7.42446Z" fill="#125AFA"/>
    <path d="M16.0699 12.8331C16.7627 12.8331 17.1288 13.2014 16.9624 13.8795C16.902 14.1291 16.8209 14.5826 16.7252 14.8219C16.4673 15.4522 16.0907 16.0263 15.6164 16.509C15.1421 16.9916 14.5784 17.3744 13.9564 17.6365C13.3365 17.8986 12.6708 18.0317 11.9989 18.0317C11.3269 18.0317 10.6613 17.8965 10.0413 17.6365C9.42142 17.3744 8.85767 16.9916 8.38129 16.509C7.90699 16.0263 7.53046 15.4522 7.27251 14.8219C7.17473 14.5826 7.09569 14.1291 7.03536 13.8795C6.86894 13.1993 7.23714 12.8331 7.92779 12.8331H16.0699Z" fill="#125AFA"/>
  </g>
  <defs>
    <clipPath id="clip0_1514_5699">
      <rect width="24" height="24" fill="white"/>
    </clipPath>
  </defs>
</svg>