<svg
          xmlns="http://www.w3.org/2000/svg"
          width="177"
          height="40"
          viewBox="0 0 177 40"
          fill="none"
        >
          <path
            d="M6.85199 32C2.405 32 0 29.3636 0 24.5V17.0455C0 12.1818 2.405 9.54546 6.85199 9.54546H8.89398C11.0267 9.54546 12.7057 10.1818 13.8401 11.4545V9.72727H21.2366V31.8182H14.43V29.2727C13.341 31.0909 11.4351 32 8.89398 32H6.85199ZM7.39652 22.3182C7.39652 23.2273 7.94105 23.7727 8.93935 23.7727H12.2519C13.2502 23.7727 13.8401 23.2273 13.8401 22.3182V19.2727C13.8401 18.3182 13.2502 17.7727 12.2519 17.7727H8.93935C7.94105 17.7727 7.39652 18.3182 7.39652 19.2727V22.3182Z"
            fill="#FBFDFD"
          />
          <path
            d="M30.8701 32C26.4231 32 24.0181 29.3636 24.0181 24.5V17.0455C24.0181 12.1818 26.4231 9.54546 30.8701 9.54546H32.9121C35.0449 9.54546 36.7238 10.1818 37.8582 11.4545V0H45.2548V31.8182H38.4482V29.2727C37.3591 31.0909 35.4532 32 32.9121 32H30.8701ZM31.4147 22.3182C31.4147 23.2273 31.9592 23.7727 32.9575 23.7727H36.27C37.2683 23.7727 37.8582 23.2273 37.8582 22.3182V19.2727C37.8582 18.3182 37.2683 17.7727 36.27 17.7727H32.9575C31.9592 17.7727 31.4147 18.3182 31.4147 19.2727V22.3182Z"
            fill="#FBFDFD"
          />
          <path
            d="M54.8883 32C50.4413 32 48.0363 29.3636 48.0363 24.5V17.0455C48.0363 12.1818 50.4413 9.54546 54.8883 9.54546H56.9302C59.063 9.54546 60.742 10.1818 61.8764 11.4545V9.72727H69.2729V31.8182H62.4663V29.2727C61.3772 31.0909 59.4714 32 56.9302 32H54.8883ZM55.4328 22.3182C55.4328 23.2273 55.9773 23.7727 56.9756 23.7727H60.2882C61.2865 23.7727 61.8764 23.2273 61.8764 22.3182V19.2727C61.8764 18.3182 61.2865 17.7727 60.2882 17.7727H56.9756C55.9773 17.7727 55.4328 18.3182 55.4328 19.2727V22.3182Z"
            fill="#FBFDFD"
          />
          <path
            d="M72.1483 40V9.72727H79.2272V11.9545C80.3163 10.3636 82.1314 9.54546 84.491 9.54546H86.5784C90.98 9.54546 93.385 12.1818 93.385 17.0455V24.5C93.385 29.3636 90.98 32 86.5784 32H84.491C82.3583 32 80.6793 31.3636 79.5449 30.0909V40H72.1483ZM79.5449 22.3182C79.5449 23.2273 80.1348 23.7727 81.1331 23.7727H84.491C85.4439 23.7727 86.0338 23.2273 86.0338 22.3182V19.2727C86.0338 18.3182 85.4439 17.7727 84.491 17.7727H81.1331C80.1348 17.7727 79.5449 18.3182 79.5449 19.2727V22.3182Z"
            fill="#FBFDFD"
          />
          <path
            d="M104.743 31.8182C100.387 31.8182 98.1177 29.5909 98.1177 25.3182V19.3182H95.7127V9.72727H98.1177V2.81818H105.514V9.72727H108.191V19.3182H105.514V21.5909C105.514 22.3636 105.832 22.7273 106.603 22.7273H108.01V31.8182H104.743Z"
            fill="#FBFDFD"
          />
          <path
            d="M119.046 32C113.963 32 110.696 29 110.696 24.3182V17.2273C110.696 12.5455 113.963 9.54546 119.046 9.54546H122.54C127.622 9.54546 130.889 12.5455 130.889 17.2273V22.1818H117.639V23.5909C117.639 24.5455 118.229 25.0909 119.227 25.0909H122.585C123.583 25.0909 124.128 24.5909 124.128 23.6818V23.4091H130.889V24.3182C130.889 29 127.622 32 122.54 32H119.046ZM117.639 18H124.173V17.7273C124.173 16.7273 123.583 16.2273 122.63 16.2273H119.227C118.229 16.2273 117.639 16.7273 117.639 17.7273V18Z"
            fill="#FBFDFD"
          />
          <path
            d="M133.567 31.8182V9.72727H140.465V12.0455C141.645 10.2727 143.324 9.36364 145.502 9.09091V19.9091C142.552 19.6818 140.964 21.0909 140.964 24.0455V31.8182H133.567Z"
            fill="#FBFDFD"
          />
          <path
            d="M149.945 32.4545C147.041 32.4545 144.909 30.4091 144.909 27.6364C144.909 24.8182 147.041 22.8636 149.945 22.8636C152.804 22.8636 154.892 24.8182 154.892 27.6364C154.892 30.4091 152.804 32.4545 149.945 32.4545Z"
            fill="#FBFDFD"
          />
          <path
            d="M157.941 31.8182V19.3182H155.536V9.72727H157.941V6.5C157.941 2.22727 160.21 0 164.567 0H167.925V8.40909H166.427C165.656 8.40909 165.338 8.77273 165.338 9.54546V9.72727H177V31.8182H169.603V19.3182H165.338V31.8182H157.941Z"
            fill="#FBFDFD"
          />
        </svg>