<svg xmlns="http://www.w3.org/2000/svg" width="393" height="482" viewBox="0 0 393 482" fill="none">
  <path fill-rule="evenodd" clip-rule="evenodd" d="M319.465 138.113C311.306 128.517 310.015 114.32 317.981 104.563L402.579 0.946312C405.317 -2.40787 404.818 -7.34698 401.464 -10.0855C398.11 -12.824 393.171 -12.3249 390.432 -8.97073L305.643 94.8807C297.735 104.567 283.7 106.195 272.69 100.267C249.861 87.9748 223.745 81 196 81C106.53 81 34 153.53 34 243C34 282.445 48.0976 318.597 71.5291 346.693C79.5315 356.289 80.7337 370.354 72.8318 380.032L-9.99291 481.477C-12.7314 484.831 -12.2323 489.77 -8.87814 492.509C-5.52395 495.248 -0.58484 494.748 2.15368 491.394L84.7439 390.236C92.7162 380.472 106.899 378.904 117.94 384.987C141.092 397.743 167.698 405 196 405C285.47 405 358 332.47 358 243C358 202.994 343.498 166.375 319.465 138.113Z" fill="#0B0B0A"/>
</svg>