<svg xmlns="http://www.w3.org/2000/svg" width="802" height="982" viewBox="0 0 802 982" fill="none">
  <path fill-rule="evenodd" clip-rule="evenodd" d="M598.014 345.939C582.595 325.63 580.004 296.965 596.131 277.213L821.547 1.1194C827.135 -5.72552 826.117 -15.8048 819.272 -21.3933C812.427 -26.9819 802.347 -25.9634 796.759 -19.1184L570.563 257.93C554.674 277.392 526.617 280.799 503.781 270.321C472.361 255.903 437.405 247.865 400.571 247.865C263.743 247.865 152.822 358.786 152.822 495.613C152.822 550.292 170.536 600.834 200.538 641.813C215.368 662.07 217.621 690.22 201.744 709.667L-20.3934 981.745C-25.9819 988.59 -24.9634 998.669 -18.1184 1004.26C-11.2735 1009.85 -1.19419 1008.83 4.39433 1001.98L225.668 730.963C241.807 711.195 270.438 708.017 293.441 719.066C325.864 734.638 362.199 743.362 400.571 743.362C537.399 743.362 648.319 632.441 648.319 495.613C648.319 439.379 629.584 387.52 598.014 345.939Z" fill="#0B0B0A"/>
</svg>