<svg xmlns="http://www.w3.org/2000/svg" width="496" height="3033" viewBox="0 0 496 3033" fill="none">
  <path fill-rule="evenodd" clip-rule="evenodd" d="M187.63 1756.66C212.232 1762.79 232.166 1783.28 232.166 1808.63L232.166 3017C232.166 3025.84 239.33 3033 248.166 3033C257.003 3033 264.166 3025.84 264.166 3017L264.166 1808.43C264.166 1783.13 284.008 1762.67 308.533 1756.49C415.973 1729.39 495.497 1632.11 495.497 1516.25C495.497 1400.4 415.973 1303.11 308.533 1276.01C284.008 1269.83 264.166 1249.37 264.166 1224.08L264.166 15.9997C264.166 7.16331 257.003 -0.00026499 248.166 -0.000265763C239.329 -0.000266536 232.166 7.16331 232.166 15.9997L232.166 1223.87C232.166 1249.23 212.232 1269.71 187.63 1275.85C79.8527 1302.71 0.000142748 1400.16 0.000132598 1516.25C0.000122449 1632.35 79.8527 1729.79 187.63 1756.66Z" fill="#0B0B0A"/>
</svg>