<svg xmlns="http://www.w3.org/2000/svg" width="4674" height="560" viewBox="0 0 4674 560" fill="none">
  <path fill-rule="evenodd" clip-rule="evenodd" d="M2292.43 541.46C2304.32 553.391 2320.18 559.943 2337.01 559.952C2337.02 559.952 2337.03 559.967 2337.02 559.976V559.976C2337.01 559.985 2337.02 560 2337.03 560C2353.86 559.991 2369.67 553.44 2381.6 541.508L2598.54 324.604V324.604C2609.21 313.942 2622.13 304 2637.21 304H4070.94H4549.91C4618.44 304 4674 293.255 4674 280C4674 266.745 4618.44 256 4549.91 256H4076.91H2637.21C2622.13 256 2609.21 246.058 2598.54 235.396V235.396L2381.6 18.4919C2369.71 6.55226 2353.84 0 2336.99 0C2320.15 0 2304.32 6.55226 2292.38 18.4919L2075.49 235.396V235.396C2064.79 246.051 2051.85 256 2036.75 256H589.823H124.089C55.5563 256 0 266.745 0 280C0 293.255 55.5564 304 124.089 304H595.79H2036.76C2051.86 304 2064.82 313.929 2075.49 324.604V324.604L2292.43 541.46Z" fill="#F9F9F2"/>
</svg>